<svg version="1.2" xmlns="http://www.w3.org/2000/svg" viewBox="0 0 251 107" width="251" height="107"><defs><clipPath clipPathUnits="userSpaceOnUse" id="cp1"><path d="m196.9 0.59v5.91h9.99v28.37h6.09v-28.38h9.93v-5.9zm-39.56 0l-13.58 34.28h6.55l3.15-8.21h12.22l3.11 8.21h6.5l-13.58-34.28zm-1.63 20.28l3.87-10.17 3.87 10.17zm29.06-20.28h-6.09v34.28h21.6v-5.9h-15.5zm-59.19 19.94h14.98v-5.9h-14.98v-8.14h15.31v-5.9h-21.4v34.27h21.45v-5.9h-15.36zm-30.35 14.33v-14.5h12.61v14.5h6.09v-34.28h-6.09v13.88h-12.61v-6.75l-6.09 7.26v19.89zm137.08 0v-14.5h12.61v14.5h6.09v-34.28h-6.09v13.88h-12.61v-13.88h-6.1v34.28z"/></clipPath><linearGradient id="P" gradientUnits="userSpaceOnUse"/><linearGradient id="g1" x2="1" href="#P" gradientTransform="matrix(0,34.272,-3.453,0,249.286,.595)"><stop stop-color="#37337b"/><stop offset=".45" stop-color="#3f3887"/><stop offset=".55" stop-color="#3f3887"/><stop offset="1" stop-color="#37337b"/></linearGradient><linearGradient id="g2" x2="1" href="#P" gradientTransform="matrix(0,34.272,-3.453,0,246.048,.595)"><stop stop-color="#412a74"/><stop offset=".45" stop-color="#4d2e81"/><stop offset=".55" stop-color="#4d2e81"/><stop offset="1" stop-color="#412a74"/></linearGradient><linearGradient id="g3" x2="1" href="#P" gradientTransform="matrix(0,34.272,-3.453,0,242.809,.595)"><stop stop-color="#662567"/><stop offset=".45" stop-color="#7b2673"/><stop offset=".55" stop-color="#7b2673"/><stop offset="1" stop-color="#662567"/></linearGradient><linearGradient id="g4" x2="1" href="#P" gradientTransform="matrix(0,34.272,-3.453,0,239.572,.595)"><stop stop-color="#a01e2c"/><stop offset=".45" stop-color="#ba1f34"/><stop offset=".55" stop-color="#ba1f34"/><stop offset="1" stop-color="#a01e2c"/></linearGradient><linearGradient id="g5" x2="1" href="#P" gradientTransform="matrix(0,34.272,-3.453,0,236.335,.595)"><stop stop-color="#9b1e21"/><stop offset=".45" stop-color="#c72127"/><stop offset=".55" stop-color="#c72127"/><stop offset="1" stop-color="#9b1e21"/></linearGradient><linearGradient id="g6" x2="1" href="#P" gradientTransform="matrix(0,34.272,-3.453,0,233.096,.595)"><stop stop-color="#c52028"/><stop offset=".45" stop-color="#d8202a"/><stop offset=".55" stop-color="#d8202a"/><stop offset="1" stop-color="#c52028"/></linearGradient><linearGradient id="g7" x2="1" href="#P" gradientTransform="matrix(0,34.272,-3.453,0,229.859,.595)"><stop stop-color="#dc1e2a"/><stop offset=".45" stop-color="#ea1c2f"/><stop offset=".55" stop-color="#ea1c2f"/><stop offset="1" stop-color="#dc1e2a"/></linearGradient><linearGradient id="g8" x2="1" href="#P" gradientTransform="matrix(0,34.272,-3.453,0,226.621,.595)"><stop stop-color="#d2202d"/><stop offset=".45" stop-color="#df1f30"/><stop offset=".55" stop-color="#df1f30"/><stop offset="1" stop-color="#d2202d"/></linearGradient><linearGradient id="g9" x2="1" href="#P" gradientTransform="matrix(0,34.272,-3.453,0,223.384,.595)"><stop stop-color="#c61f2d"/><stop offset=".45" stop-color="#e71c37"/><stop offset=".55" stop-color="#e71c37"/><stop offset="1" stop-color="#c61f2d"/></linearGradient><linearGradient id="g10" x2="1" href="#P" gradientTransform="matrix(0,34.272,-3.453,0,220.146,.595)"><stop stop-color="#cd1f4c"/><stop offset=".45" stop-color="#e2185f"/><stop offset=".55" stop-color="#e2185f"/><stop offset="1" stop-color="#cd1f4c"/></linearGradient><linearGradient id="g11" x2="1" href="#P" gradientTransform="matrix(0,34.272,-3.453,0,216.908,.595)"><stop stop-color="#b3233d"/><stop offset=".45" stop-color="#c91e4f"/><stop offset=".55" stop-color="#c91e4f"/><stop offset="1" stop-color="#b3233d"/></linearGradient><linearGradient id="g12" x2="1" href="#P" gradientTransform="matrix(0,34.272,-3.453,0,213.669,.595)"><stop stop-color="#e43075"/><stop offset=".45" stop-color="#ee4786"/><stop offset=".55" stop-color="#ee4786"/><stop offset="1" stop-color="#e43075"/></linearGradient><linearGradient id="g13" x2="1" href="#P" gradientTransform="matrix(0,34.272,-3.453,0,210.433,.595)"><stop stop-color="#e3126e"/><stop offset=".45" stop-color="#e71a7a"/><stop offset=".55" stop-color="#e71a7a"/><stop offset="1" stop-color="#e3126e"/></linearGradient><linearGradient id="g14" x2="1" href="#P" gradientTransform="matrix(0,34.272,-3.453,0,207.194,.595)"><stop stop-color="#ba2255"/><stop offset=".45" stop-color="#d9176d"/><stop offset=".55" stop-color="#d9176d"/><stop offset="1" stop-color="#ba2255"/></linearGradient><linearGradient id="g15" x2="1" href="#P" gradientTransform="matrix(0,34.272,-3.453,0,203.952,.595)"><stop stop-color="#e2185c"/><stop offset=".45" stop-color="#e71269"/><stop offset=".55" stop-color="#e71269"/><stop offset="1" stop-color="#e2185c"/></linearGradient><linearGradient id="g16" x2="1" href="#P" gradientTransform="matrix(0,34.272,-3.453,0,200.716,.595)"><stop stop-color="#cf1d35"/><stop offset=".45" stop-color="#e21c44"/><stop offset=".55" stop-color="#e21c44"/><stop offset="1" stop-color="#cf1d35"/></linearGradient><linearGradient id="g17" x2="1" href="#P" gradientTransform="matrix(0,34.272,-3.453,0,197.481,.595)"><stop stop-color="#e3272c"/><stop offset=".45" stop-color="#e83434"/><stop offset=".55" stop-color="#e83434"/><stop offset="1" stop-color="#e3272c"/></linearGradient><linearGradient id="g18" x2="1" href="#P" gradientTransform="matrix(0,34.272,-3.453,0,194.245,.595)"><stop stop-color="#e94129"/><stop offset=".45" stop-color="#f05a30"/><stop offset=".55" stop-color="#f05a30"/><stop offset="1" stop-color="#e94129"/></linearGradient><linearGradient id="g19" x2="1" href="#P" gradientTransform="matrix(0,34.272,-3.453,0,191.01,.595)"><stop stop-color="#eb5c2b"/><stop offset=".45" stop-color="#f37935"/><stop offset=".55" stop-color="#f37935"/><stop offset="1" stop-color="#eb5c2b"/></linearGradient><linearGradient id="g20" x2="1" href="#P" gradientTransform="matrix(0,34.272,-3.453,0,187.768,.595)"><stop stop-color="#c82028"/><stop offset=".45" stop-color="#e21e2d"/><stop offset=".55" stop-color="#e21e2d"/><stop offset="1" stop-color="#c82028"/></linearGradient><linearGradient id="g21" x2="1" href="#P" gradientTransform="matrix(0,34.272,-3.453,0,184.531,.595)"><stop stop-color="#dd1e27"/><stop offset=".45" stop-color="#ed2531"/><stop offset=".55" stop-color="#ed2531"/><stop offset="1" stop-color="#dd1e27"/></linearGradient><linearGradient id="g22" x2="1" href="#P" gradientTransform="matrix(0,34.272,-3.453,0,181.292,.595)"><stop stop-color="#8b1d1f"/><stop offset=".45" stop-color="#c84727"/><stop offset=".55" stop-color="#c84727"/><stop offset="1" stop-color="#8b1d1f"/></linearGradient><linearGradient id="g23" x2="1" href="#P" gradientTransform="matrix(0,34.272,-3.453,0,178.054,.595)"><stop stop-color="#bc3228"/><stop offset=".45" stop-color="#df4b2c"/><stop offset=".55" stop-color="#df4b2c"/><stop offset="1" stop-color="#bc3228"/></linearGradient><linearGradient id="g24" x2="1" href="#P" gradientTransform="matrix(0,34.272,-3.453,0,174.817,.595)"><stop stop-color="#ed7f2e"/><stop offset=".45" stop-color="#faa933"/><stop offset=".55" stop-color="#faa933"/><stop offset="1" stop-color="#ed7f2e"/></linearGradient><linearGradient id="g25" x2="1" href="#P" gradientTransform="matrix(0,34.272,-3.453,0,171.578,.595)"><stop stop-color="#db462c"/><stop offset=".45" stop-color="#ec7732"/><stop offset=".55" stop-color="#ec7732"/><stop offset="1" stop-color="#db462c"/></linearGradient><linearGradient id="g26" x2="1" href="#P" gradientTransform="matrix(0,34.272,-3.453,0,168.342,.595)"><stop stop-color="#e5572b"/><stop offset=".45" stop-color="#f37d2c"/><stop offset=".55" stop-color="#f37d2c"/><stop offset="1" stop-color="#e5572b"/></linearGradient><linearGradient id="g27" x2="1" href="#P" gradientTransform="matrix(0,34.272,-3.453,0,165.104,.595)"><stop stop-color="#e12a29"/><stop offset=".45" stop-color="#ee372b"/><stop offset=".55" stop-color="#ee372b"/><stop offset="1" stop-color="#e12a29"/></linearGradient><linearGradient id="g28" x2="1" href="#P" gradientTransform="matrix(0,34.272,-3.453,0,161.865,.595)"><stop stop-color="#ce2a27"/><stop offset=".45" stop-color="#e6492a"/><stop offset=".55" stop-color="#e6492a"/><stop offset="1" stop-color="#ce2a27"/></linearGradient><linearGradient id="g29" x2="1" href="#P" gradientTransform="matrix(0,34.272,-3.453,0,158.628,.595)"><stop stop-color="#ed2528"/><stop offset=".45" stop-color="#ed3729"/><stop offset=".55" stop-color="#ed3729"/><stop offset="1" stop-color="#ed2528"/></linearGradient><linearGradient id="g30" x2="1" href="#P" gradientTransform="matrix(0,34.272,-3.453,0,155.391,.595)"><stop stop-color="#f69131"/><stop offset=".45" stop-color="#ffd43a"/><stop offset=".55" stop-color="#ffd43a"/><stop offset="1" stop-color="#f69131"/></linearGradient><linearGradient id="g31" x2="1" href="#P" gradientTransform="matrix(0,34.272,-3.453,0,152.152,.595)"><stop stop-color="#f37923"/><stop offset=".45" stop-color="#ffc735"/><stop offset=".55" stop-color="#ffc735"/><stop offset="1" stop-color="#f37923"/></linearGradient><linearGradient id="g32" x2="1" href="#P" gradientTransform="matrix(0,34.272,-3.453,0,148.915,.595)"><stop stop-color="#fcb125"/><stop offset=".45" stop-color="#ffd434"/><stop offset=".55" stop-color="#ffd434"/><stop offset="1" stop-color="#fcb125"/></linearGradient><linearGradient id="g33" x2="1" href="#P" gradientTransform="matrix(0,34.272,-4.1,0,145.354,.595)"><stop stop-color="#f79825"/><stop offset=".45" stop-color="#ffc735"/><stop offset=".55" stop-color="#ffc735"/><stop offset="1" stop-color="#f79825"/></linearGradient><linearGradient id="g34" x2="1" href="#P" gradientTransform="matrix(0,34.272,-2.806,0,142.116,.595)"><stop stop-color="#dc3228"/><stop offset=".45" stop-color="#ef4928"/><stop offset=".55" stop-color="#ef4928"/><stop offset="1" stop-color="#dc3228"/></linearGradient><linearGradient id="g35" x2="1" href="#P" gradientTransform="matrix(0,34.272,-3.453,0,139.202,.595)"><stop stop-color="#e67325"/><stop offset=".45" stop-color="#faab33"/><stop offset=".55" stop-color="#faab33"/><stop offset="1" stop-color="#e67325"/></linearGradient><linearGradient id="g36" x2="1" href="#P" gradientTransform="matrix(0,34.272,-3.453,0,135.964,.595)"><stop stop-color="#e82628"/><stop offset=".45" stop-color="#ee372d"/><stop offset=".55" stop-color="#ee372d"/><stop offset="1" stop-color="#e82628"/></linearGradient><linearGradient id="g37" x2="1" href="#P" gradientTransform="matrix(0,34.272,-3.453,0,132.726,.595)"><stop stop-color="#cc2b28"/><stop offset=".45" stop-color="#e64b2a"/><stop offset=".55" stop-color="#e64b2a"/><stop offset="1" stop-color="#cc2b28"/></linearGradient><linearGradient id="g38" x2="1" href="#P" gradientTransform="matrix(0,34.272,-3.458,0,129.486,.595)"><stop stop-color="#de2f29"/><stop offset=".45" stop-color="#e7442c"/><stop offset=".55" stop-color="#e7442c"/><stop offset="1" stop-color="#de2f29"/></linearGradient><linearGradient id="g39" x2="1" href="#P" gradientTransform="matrix(0,34.272,-3.456,0,126.249,.595)"><stop stop-color="#993b2c"/><stop offset=".45" stop-color="#b14834"/><stop offset=".55" stop-color="#b14834"/><stop offset="1" stop-color="#993b2c"/></linearGradient><linearGradient id="g40" x2="1" href="#P" gradientTransform="matrix(0,34.272,-3.454,0,123.012,.595)"><stop stop-color="#657f42"/><stop offset=".45" stop-color="#758946"/><stop offset=".55" stop-color="#758946"/><stop offset="1" stop-color="#657f42"/></linearGradient><linearGradient id="g41" x2="1" href="#P" gradientTransform="matrix(0,34.272,-3.453,0,119.776,.595)"><stop stop-color="#14934b"/><stop offset=".45" stop-color="#209d4e"/><stop offset=".55" stop-color="#209d4e"/><stop offset="1" stop-color="#14934b"/></linearGradient><linearGradient id="g42" x2="1" href="#P" gradientTransform="matrix(0,34.272,-3.453,0,116.539,.595)"><stop stop-color="#007d45"/><stop offset=".45" stop-color="#0a844a"/><stop offset=".55" stop-color="#0a844a"/><stop offset="1" stop-color="#007d45"/></linearGradient><linearGradient id="g43" x2="1" href="#P" gradientTransform="matrix(0,34.272,-3.453,0,113.3,.595)"><stop stop-color="#0b5a3e"/><stop offset=".45" stop-color="#177254"/><stop offset=".55" stop-color="#177254"/><stop offset="1" stop-color="#0b5a3e"/></linearGradient><linearGradient id="g44" x2="1" href="#P" gradientTransform="matrix(0,34.272,-3.453,0,110.061,.595)"><stop stop-color="#00609e"/><stop offset=".45" stop-color="#0087be"/><stop offset=".55" stop-color="#0087be"/><stop offset="1" stop-color="#00609e"/></linearGradient><linearGradient id="g45" x2="1" href="#P" gradientTransform="matrix(0,34.272,-3.453,0,106.823,.595)"><stop stop-color="#00639c"/><stop offset=".45" stop-color="#0094cd"/><stop offset=".55" stop-color="#0094cd"/><stop offset="1" stop-color="#00639c"/></linearGradient><linearGradient id="g46" x2="1" href="#P" gradientTransform="matrix(0,34.272,-3.453,0,103.586,.595)"><stop stop-color="#005882"/><stop offset=".45" stop-color="#007bb1"/><stop offset=".55" stop-color="#007bb1"/><stop offset="1" stop-color="#005882"/></linearGradient><linearGradient id="g47" x2="1" href="#P" gradientTransform="matrix(0,34.272,-3.453,0,100.349,.595)"><stop stop-color="#194b81"/><stop offset=".45" stop-color="#0a5591"/><stop offset=".55" stop-color="#0a5591"/><stop offset="1" stop-color="#194b81"/></linearGradient><linearGradient id="g48" x2="1" href="#P" gradientTransform="matrix(0,34.272,-3.453,0,97.111,.595)"><stop stop-color="#2c3572"/><stop offset=".45" stop-color="#2c3b80"/><stop offset=".55" stop-color="#2c3b80"/><stop offset="1" stop-color="#2c3572"/></linearGradient><linearGradient id="g49" x2="1" href="#P" gradientTransform="matrix(0,34.272,-3.453,0,93.873,.595)"><stop stop-color="#283465"/><stop offset=".45" stop-color="#304077"/><stop offset=".55" stop-color="#304077"/><stop offset="1" stop-color="#283465"/></linearGradient><linearGradient id="g50" x2="1" href="#P" gradientTransform="matrix(0,34.272,-3.238,0,90.743,.595)"><stop stop-color="#32397e"/><stop offset=".45" stop-color="#323f87"/><stop offset=".55" stop-color="#323f87"/><stop offset="1" stop-color="#32397e"/></linearGradient></defs><style>.a{fill:url(#g1)}.b{fill:url(#g2)}.c{fill:url(#g3)}.d{fill:url(#g4)}.e{fill:url(#g5)}.f{fill:url(#g6)}.g{fill:url(#g7)}.h{fill:url(#g8)}.i{fill:url(#g9)}.j{fill:url(#g10)}.k{fill:url(#g11)}.l{fill:url(#g12)}.m{fill:url(#g13)}.n{fill:url(#g14)}.o{fill:url(#g15)}.p{fill:url(#g16)}.q{fill:url(#g17)}.r{fill:url(#g18)}.s{fill:url(#g19)}.t{fill:url(#g20)}.u{fill:url(#g21)}.v{fill:url(#g22)}.w{fill:url(#g23)}.x{fill:url(#g24)}.y{fill:url(#g25)}.z{fill:url(#g26)}.A{fill:url(#g27)}.B{fill:url(#g28)}.C{fill:url(#g29)}.D{fill:url(#g30)}.E{fill:url(#g31)}.F{fill:url(#g32)}.G{fill:url(#g33)}.H{fill:url(#g34)}.I{fill:url(#g35)}.J{fill:url(#g36)}.K{fill:url(#g37)}.L{fill:url(#g38)}.M{fill:url(#g39)}.N{fill:url(#g40)}.O{fill:url(#g41)}.P{fill:url(#g42)}.Q{fill:url(#g43)}.R{fill:url(#g44)}.S{fill:url(#g45)}.T{fill:url(#g46)}.U{fill:url(#g47)}.V{fill:url(#g48)}.W{fill:url(#g49)}.X{fill:url(#g50)}</style><path fill-rule="evenodd" d="m4.7 104.5h-2.9l-0.7 1.8h-1.1l2.8-7.2h0.8l2.8 7.2h-1.1c0 0-0.6-1.8-0.6-1.8zm-2.5-1h2.1l-1.1-2.8c0 0-1 2.8-1 2.8zm5.2 2.8v-7.1h0.7l3.5 5v-5h1v7.1h-0.8l-3.4-5v5c0 0-1 0-1 0zm12.8-6.1h-1.3v5.1h1.3v1h-3.6v-1h1.3v-5.1h-1.3v-1h3.6zm3.8-1c0.6 0 1.2 0.3 1.6 0.7 0.5 0.5 0.7 1.1 0.7 1.7 0 0.6-0.2 1.2-0.7 1.6-0.4 0.5-1 0.7-1.6 0.7h-1.5v2.4h-1.1v-7.1c0 0 2.6 0 2.6 0zm0 3.7c0.4 0 0.7-0.1 0.9-0.4 0.3-0.2 0.4-0.6 0.4-0.9 0-0.4-0.1-0.7-0.4-0.9-0.2-0.3-0.5-0.4-0.9-0.5h-1.5v2.7zm9.1-1.2q-0.1-0.3-0.4-0.6-0.2-0.4-0.5-0.6-0.3-0.2-0.7-0.3-0.4-0.1-0.8-0.1c-0.6 0.1-1.3 0.4-1.7 0.9-0.5 0.5-0.8 1.1-0.8 1.8 0 0.7 0.3 1.3 0.8 1.8 0.4 0.5 1.1 0.8 1.7 0.8q0.4 0 0.8-0.1 0.3-0.1 0.6-0.3 0.3-0.2 0.5-0.4 0.3-0.3 0.4-0.7h-2.7v-1h3.9q0 0.2 0 0.3 0 0.2 0 0.3 0 0.2-0.1 0.4 0 0.1-0.1 0.3-0.2 0.4-0.5 0.9-0.3 0.4-0.8 0.7-0.4 0.3-0.9 0.4-0.5 0.2-1 0.2c-1 0-1.9-0.4-2.6-1.1-0.6-0.7-1-1.6-1-2.5 0-1 0.4-1.9 1-2.6 0.7-0.7 1.6-1.1 2.6-1.1q0.6 0 1.1 0.1 0.6 0.2 1.1 0.6 0.4 0.3 0.8 0.8 0.3 0.6 0.4 1.1c0 0-1.1 0-1.1 0zm5.9 0.5h3v-3h1v7.1h-1v-3.1h-3v3.1h-1.1v-7.1h1.1zm6.6 3.1h3.3v1h-4.3v-7.1h4.3v1.1h-3.3v2h3.2v1h-3.2c0 0 0 2 0 2zm8.8-0.8h-2.9l-0.7 1.8h-1.1l2.9-7.2h0.7l2.9 7.2h-1.1c0 0-0.7-1.8-0.7-1.8zm-2.5-0.9h2.1l-1-2.8zm6.2 1.7h3.3v1h-4.4v-7.1h1.1zm5.4 1.1v-6.2h-2.1v-0.9h5.3v0.9h-2.1v6.2c0 0-1.1 0-1.1 0zm5.3-4.1h3v-3h1v7.1h-1v-3.1h-3v3.1h-1v-7.1h1zm9.2-2q0.2-0.2 0.5-0.4 0.3-0.2 0.6-0.4 0.3-0.1 0.7-0.2 0.3 0 0.7 0 0.5 0 1.1 0.1 0.5 0.2 1 0.6 0.4 0.3 0.7 0.8 0.3 0.5 0.5 1.1h-1q-0.2-0.4-0.4-0.7-0.2-0.3-0.5-0.5-0.3-0.2-0.7-0.3-0.4-0.1-0.7-0.1-0.3 0-0.5 0-0.3 0.1-0.5 0.2-0.2 0.1-0.4 0.2-0.2 0.2-0.4 0.3-0.3 0.4-0.5 0.9-0.2 0.4-0.2 0.9 0 0.5 0.2 1 0.2 0.5 0.5 0.9 0.5 0.4 1.1 0.6 0.6 0.2 1.2 0 0.7-0.1 1.1-0.5 0.5-0.5 0.7-1.1h1q-0.1 0.6-0.4 1.1-0.3 0.5-0.8 0.9-0.4 0.3-1 0.5-0.5 0.2-1.1 0.2-0.4 0-0.7 0-0.4-0.1-0.7-0.3-0.3-0.1-0.6-0.3-0.2-0.2-0.5-0.4-0.5-0.5-0.7-1.2-0.3-0.7-0.3-1.4 0-0.7 0.3-1.3 0.2-0.7 0.7-1.2zm7.9-0.1q0.5-0.5 1.2-0.8 0.7-0.2 1.4-0.2 0.7 0 1.4 0.2 0.7 0.3 1.2 0.8 0.5 0.6 0.8 1.2 0.3 0.7 0.3 1.4 0 0.8-0.3 1.4-0.3 0.7-0.8 1.2-0.5 0.5-1.2 0.8-0.7 0.3-1.4 0.3-0.7 0-1.4-0.3-0.7-0.3-1.2-0.8-0.5-0.5-0.8-1.2-0.2-0.6-0.2-1.4 0-0.7 0.2-1.4 0.3-0.6 0.8-1.2zm4.5 0.8q-0.2-0.2-0.4-0.3-0.3-0.2-0.5-0.3-0.2-0.1-0.5-0.1-0.2-0.1-0.5-0.1-0.3 0-0.5 0.1-0.3 0-0.5 0.1-0.2 0.1-0.4 0.3-0.3 0.1-0.4 0.3-0.4 0.3-0.6 0.8-0.2 0.5-0.2 1 0 0.6 0.2 1 0.2 0.5 0.6 0.9 0.1 0.2 0.4 0.3 0.2 0.2 0.4 0.3 0.2 0.1 0.5 0.1 0.2 0.1 0.5 0.1c0.5 0 1-0.2 1.5-0.5 0.4-0.3 0.7-0.7 0.9-1.2 0.2-0.4 0.3-1 0.2-1.5-0.1-0.5-0.4-1-0.7-1.3zm4.1 5.4h-1v-7.1h0.8l2.3 3.4 2.4-3.4h0.8v7.1h-1v-5l-1.9 2.7h-0.5l-1.9-2.7c0 0 0 5 0 5zm9.5-7.1c0.6 0 1.2 0.3 1.6 0.7 0.4 0.5 0.6 1 0.6 1.7 0 0.6-0.2 1.2-0.6 1.6-0.4 0.4-1 0.7-1.6 0.7h-1.6v2.4h-1v-7.1c0 0 2.6 0 2.6 0zm0 3.7c0.3 0 0.6-0.2 0.9-0.4 0.2-0.3 0.3-0.6 0.3-0.9 0-0.4-0.1-0.7-0.3-1-0.3-0.2-0.6-0.4-0.9-0.4h-1.6v2.7zm7.3 1.6h-2.9l-0.7 1.8h-1.1l2.9-7.2h0.7l2.8 7.2h-1c0 0-0.7-1.8-0.7-1.8zm-2.5-1h2.1l-1.1-2.8zm5.2 2.8v-7.1h0.8l3.5 5v-5h1v7.1h-0.8l-3.4-5v5zm7.3-7.1l2 3.1 1.9-3.1h1.2l-2.6 4.2v2.9h-1.1v-2.9l-2.6-4.2c0 0 1.2 0 1.2 0z"/><path fill-rule="evenodd" d="m66.8 78.2l15.5-20.5h-15v-2.8h19.1v2.4l-15.5 20.4h15.7v2.9h-19.8c0 0 0-2.4 0-2.4zm-11.4-23.3l10.1 25.7h-3.1l-3.2-7.9h-10.2l-3.2 7.9h-3.1l10.2-25.7zm2.7 14.9l-3.9-10.1-4 10.1zm44.7 10.8h-12.8v-2.9h4.9v-20h-4.9v-2.8h12.8v2.8h-5v20h5zm-91.2 0h-11.5v-25.7h10.6c4.8 0 6.5 4 6.5 6.7q0 0.7-0.1 1.4-0.1 0.6-0.3 1.2-0.2 0.6-0.6 1.2-0.3 0.6-0.8 1 0.8 0.6 1.5 1.3 0.7 0.7 1.2 1.6 0.4 0.8 0.6 1.8 0.3 1 0.2 2c0 4-2.8 7.5-7.3 7.5zm-8.6-2.9h8.6q1 0 1.8-0.3 0.8-0.4 1.5-1 0.6-0.7 0.9-1.6 0.3-0.8 0.2-1.7c0-2.9-1.8-4.7-4.4-4.7h-8.6zm0-12.3h7.7q0.7 0.1 1.4-0.2 0.7-0.3 1.2-0.8 0.6-0.6 0.8-1.3 0.3-0.7 0.2-1.5 0.1-0.7-0.2-1.4-0.2-0.8-0.7-1.3-0.6-0.6-1.3-0.9-0.7-0.3-1.4-0.3h-7.7zm22.5 15.2h-2.8v-25.7h9.2c2.2-0.1 4.3 0.7 5.8 2.2 1.6 1.5 2.4 3.6 2.4 5.8 0 2.1-0.8 4.2-2.4 5.7-1.5 1.5-3.6 2.3-5.8 2.3h-0.7l10.8 9.7h-4.4l-11.1-10.1v-2.5h5.4c1.4 0.1 2.7-0.5 3.7-1.4 1-1 1.6-2.3 1.6-3.7 0-1.4-0.6-2.7-1.6-3.7-1-1-2.3-1.5-3.7-1.4h-6.4c0 0 0 22.8 0 22.8zm96.4 0h-15.4v-25.7h2.9v22.7h12.5c0 0 0 3 0 3z"/><g clip-path="url(#cp1)"><path class="a" d="m251 34.9h-3.4v-34.3h3.4z"/><path class="b" d="m247.8 34.9h-3.5v-34.3h3.5z"/><path class="c" d="m244.5 34.9h-3.4v-34.3h3.4z"/><path class="d" d="m241.3 34.9h-3.5v-34.3h3.5z"/><path class="e" d="m238.1 34.9h-3.5v-34.3h3.5z"/><path class="f" d="m234.8 34.9h-3.4v-34.3h3.4z"/><path class="g" d="m231.6 34.9h-3.5v-34.3h3.5z"/><path class="h" d="m228.3 34.9h-3.4v-34.3h3.4z"/><path class="i" d="m225.1 34.9h-3.4v-34.3h3.4z"/><path class="j" d="m221.9 34.9h-3.5v-34.3h3.5z"/><path class="k" d="m218.6 34.9h-3.4v-34.3h3.4z"/><path class="l" d="m215.4 34.9h-3.5v-34.3h3.5z"/><path class="m" d="m212.2 34.9h-3.5v-34.3h3.5z"/><path class="n" d="m208.9 34.9h-3.4v-34.3h3.4z"/><path class="o" d="m205.7 34.9h-3.5v-34.3h3.5z"/><path class="p" d="m202.4 34.9h-3.4v-34.3h3.4z"/><path class="q" d="m199.2 34.9h-3.4v-34.3h3.4z"/><path class="r" d="m196 34.9h-3.5v-34.3h3.5z"/><path class="s" d="m192.7 34.9h-3.4v-34.3h3.4z"/><path class="t" d="m189.5 34.9h-3.5v-34.3h3.5z"/><path class="u" d="m186.3 34.9h-3.5v-34.3h3.5z"/><path class="v" d="m183 34.9h-3.4v-34.3h3.4z"/><path class="w" d="m179.8 34.9h-3.5v-34.3h3.5z"/><path class="x" d="m176.5 34.9h-3.4v-34.3h3.4z"/><path class="y" d="m173.3 34.9h-3.4v-34.3h3.4z"/><path class="z" d="m170.1 34.9h-3.5v-34.3h3.5z"/><path class="A" d="m166.8 34.9h-3.4v-34.3h3.4z"/><path class="B" d="m163.6 34.9h-3.5v-34.3h3.5z"/><path class="C" d="m160.4 34.9h-3.5v-34.3h3.5z"/><path class="D" d="m157.1 34.9h-3.4v-34.3h3.4z"/><path class="E" d="m153.9 34.9h-3.5v-34.3h3.5z"/><path class="F" d="m150.6 34.9h-3.4v-34.3h3.4z"/><path class="G" d="m147.4 34.9h-4.1v-34.3h4.1z"/><path class="H" d="m143.5 34.9h-2.8v-34.3h2.8z"/><path class="I" d="m140.9 34.9h-3.4v-34.3h3.4z"/><path class="J" d="m137.7 34.9h-3.5v-34.3h3.5z"/><path class="K" d="m134.5 34.9h-3.5v-34.3h3.5z"/><path class="L" d="m131.2 34.9h-3.4v-34.3h3.4z"/><path class="M" d="m128 34.9h-3.5v-34.3h3.5z"/><path class="N" d="m124.7 34.9h-3.4v-34.3h3.4z"/><path class="O" d="m121.5 34.9h-3.5v-34.3h3.5z"/><path class="P" d="m118.3 34.9h-3.5v-34.3h3.5z"/><path class="Q" d="m115 34.9h-3.4v-34.3h3.4z"/><path class="R" d="m111.8 34.9h-3.5v-34.3h3.5z"/><path class="S" d="m108.5 34.9h-3.4v-34.3h3.4z"/><path class="T" d="m105.3 34.9h-3.4v-34.3h3.4z"/><path class="U" d="m102.1 34.9h-3.5v-34.3h3.5z"/><path class="V" d="m98.8 34.9h-3.4v-34.3h3.4z"/><path class="W" d="m95.6 34.9h-3.5v-34.3h3.5z"/><path class="X" d="m92.4 34.9h-3.3v-34.3h3.3z"/></g><path fill-rule="evenodd" d="m0 0.6h20.8v5.9h-14.7v8.5h13v5.9h-13v14h-6.1zm56.7 20.6c-1.5 7.6-7.7 14.2-16.9 14.2-9.4 0-17.1-7.9-17.1-17.7 0-9.8 7.7-17.7 17.1-17.7 2 0 3.9 0.3 5.8 0.9 1.8 0.7 3.6 1.7 5.1 2.9 1.5 1.3 2.8 2.8 3.7 4.5 1 1.7 1.7 3.6 2 5.5h-6.2q-0.5-1.7-1.4-3.2-1-1.5-2.4-2.6-1.5-1.1-3.1-1.6-1.7-0.6-3.5-0.6c-6.1 0-11 5.4-11 11.9 0 6.5 4.9 11.9 11 11.9 5.5 0 9.2-3.7 10.6-8.4 0 0 6.3 0 6.3 0zm25.7-4.5q0.6 0.4 1 0.9 0.5 0.5 0.9 1.1 0.3 0.6 0.6 1.3l-5.3 6.2v-2c0-2.2-1.2-4.6-4-4.6h-9.5v9.3h11.3l-5 5.9h-12.4v-34.2h14.4c6.9 0 9.4 6 9.4 9.5q0 0.8-0.2 1.6-0.1 0.8-0.5 1.5-0.3 0.8-0.8 1.5-0.4 0.6-1 1.2 0.6 0.3 1.1 0.8zm-8-3c2.2 0 3.3-1.8 3.3-3.7 0-1.7-1-3.5-3.2-3.5h-8.4v7.2c0 0 8.3 0 8.3 0z"/></svg>