<svg xmlns="http://www.w3.org/2000/svg" width="298.075" height="126.354" viewBox="0 0 298.075 126.354">
  <path id="FCBHealth_BRA_Logo_RGB_Blk_Pos" d="M5.539,124.071H2.127L1.31,126.2H0l3.376-8.519h.889L7.642,126.2h-1.3l-.8-2.127ZM2.571,122.93H5.094l-1.261-3.316L2.571,122.93ZM8.734,126.2v-8.411h.937l4.1,5.924v-5.924h1.2V126.2h-.962l-4.061-5.875V126.2H8.734Zm15.3-7.245H22.476v6.08h1.562V126.2H19.7v-1.166h1.562v-6.08H19.7V117.8h4.337Zm4.479-1.166a2.807,2.807,0,0,1,0,5.612h-1.85v2.8H25.441v-8.411h3.076Zm0,4.41a1.594,1.594,0,0,0,0-3.184h-1.85V122.2Zm10.823-1.418a2.68,2.68,0,0,0-2.764-1.886,3.134,3.134,0,0,0,0,6.26,2.787,2.787,0,0,0,2.691-1.742H36.1v-1.237h4.626a5.709,5.709,0,0,1-.24,1.49v-.012a4.305,4.305,0,0,1-3.9,2.691,4.345,4.345,0,0,1,0-8.687,3.941,3.941,0,0,1,4.085,3.124H39.341Zm6.99.565h3.557V117.8h1.226v8.4H49.887v-3.653H46.33V126.2H45.116v-8.4H46.33Zm7.874,3.64h3.9V126.2h-5.13v-8.4H58.1v1.213H54.2v2.367h3.809v1.226H54.2v2.379Zm10.454-.913H61.245l-.817,2.127h-1.31l3.376-8.519h.889L66.76,126.2h-1.3l-.8-2.127ZM61.69,122.93h2.523l-1.261-3.316L61.69,122.93Zm7.376,2.054h3.953V126.2H67.852v-8.411h1.214Zm6.487,1.214v-7.257H73.006v-1.154h6.3v1.154H76.767V126.2H75.554Zm6.222-4.854h3.557V117.8h1.226v8.4H85.332v-3.653H81.775V126.2H80.561v-8.4h1.214ZM92.741,119a4.057,4.057,0,0,1,2.908-1.249,3.936,3.936,0,0,1,3.917,3.1h-1.2a2.737,2.737,0,0,0-2.716-1.9,2.86,2.86,0,0,0-2.067.9,3.105,3.105,0,0,0,0,4.3,2.895,2.895,0,0,0,4.854-1.106h1.189a4.057,4.057,0,0,1-3.977,3.208,4.011,4.011,0,0,1-2.908-1.25,4.356,4.356,0,0,1,0-6.007Zm9.394-.084a4.308,4.308,0,0,1,6.139,0,4.381,4.381,0,0,1,0,6.151,4.308,4.308,0,0,1-6.139,0,4.38,4.38,0,0,1,0-6.151Zm5.263.877a3.088,3.088,0,0,0-2.2-.925,3.033,3.033,0,0,0-2.175.925,3.1,3.1,0,0,0,0,4.4,3.032,3.032,0,0,0,2.175.925,3.127,3.127,0,0,0,2.2-5.323Zm4.92,6.4H111.1v-8.411h.985l2.776,4.085,2.776-4.085h.962V126.2h-1.2v-5.924l-2.2,3.268h-.685l-2.2-3.268V126.2Zm11.244-8.411a2.807,2.807,0,0,1,0,5.612h-1.85v2.8h-1.226v-8.411h3.076Zm0,4.41a1.594,1.594,0,0,0,0-3.184h-1.85V122.2Zm8.625,1.874h-3.413l-.817,2.127h-1.31l3.376-8.519h.889l3.376,8.519h-1.3l-.8-2.127Zm-2.968-1.141h2.523l-1.261-3.316Zm6.163,3.268v-8.411h.937l4.1,5.924v-5.924h1.2V126.2h-.962l-4.061-5.875V126.2h-1.214Zm8.748-8.411,2.3,3.7,2.3-3.7h1.441l-3.124,4.986V126.2h-1.226v-3.424l-3.112-4.986h1.43ZM264.723.707V7.716h-11.8v33.69H245.69V7.716H233.834V.707h30.888Zm-72.683,0,16.13,40.7h-7.725l-3.7-9.75H182.242l-3.744,9.75h-7.778L186.846.707ZM194.1,24.779,189.5,12.7l-4.6,12.075ZM219.41.707h-7.236v40.7H237.82V34.4H219.41Zm-70.3,23.684h17.8V17.381h-17.8V7.716H167.3V.707H141.879v40.7h25.479V34.4H149.114ZM113.075,41.407V24.189h14.974V41.407h7.236V.707h-7.236V17.18H113.075V9.17l-7.236,8.623V41.406h7.236Zm162.791,0V24.189H290.84V41.407h7.236V.707H290.84V17.18H275.866V.707H268.63v40.7ZM0,.707H24.653V7.716H7.236v10.09H22.673v7.009H7.236V41.407H0ZM59.872,25.175C58.236,30.8,53.832,35.16,47.248,35.16c-7.224,0-13.08-6.346-13.08-14.1s5.856-14.1,13.08-14.1a12.614,12.614,0,0,1,12.341,9.47h7.428C65.106,6.873,57.338,0,47.306,0,36.054,0,26.933,9.427,26.933,21.057s9.121,21.057,20.373,21.057c10.835,0,18.243-7.842,19.98-16.939H59.872Zm18.641-8.83V7.716h9.97c2.609,0,3.766,2.133,3.766,4.245,0,2.2-1.271,4.384-3.879,4.384H78.512ZM96.5,18.9A9.227,9.227,0,0,0,99.483,12c0-4.078-2.9-11.3-11.149-11.3H71.276v40.7H86.025L91.907,34.4H78.512V23.354H89.733c3.337,0,4.853,2.781,4.853,5.374V31.2l6.257-7.457A10.2,10.2,0,0,0,96.5,18.9ZM79.367,95.673h23.5V92.24H84.158l18.392-24.2V65.147H79.966V68.54h17.8l-18.4,24.281v2.851ZM62.822,65.148,50.7,95.673h3.744l3.751-9.3h12.1l3.791,9.3H77.82L65.739,65.148Zm-3.248,17.8,4.684-12.038,4.65,12.038Zm62.4,12.729h-15.2V92.28h5.865V68.5H106.77V65.148h15.2V68.5h-5.905V92.28h5.905Zm-108.249,0H0V65.148H12.606c5.659,0,7.731,4.792,7.731,8.011A7.878,7.878,0,0,1,18.2,78.841,8.9,8.9,0,0,1,22.375,86.7c0,4.79-3.3,8.97-8.65,8.97ZM3.433,92.24h10.3c3.163,0,5.213-2.346,5.213-5.5,0-3.435-2.143-5.6-5.213-5.6H3.433V92.239Zm0-14.525h9.146c3.448,0,4.325-2.8,4.325-4.527,0-1.9-1.041-4.608-4.325-4.608H3.433v9.134ZM30.239,95.673H26.807V65.148H37.8a9.5,9.5,0,1,1,0,18.994h-.817L49.751,95.673H44.6L31.375,83.682V80.748H37.8a6.087,6.087,0,1,0,0-12.168H30.24V95.672Zm114.421,0H126.345V65.148h3.473V92.16h14.843v3.513Z" fill="#fff"/>
</svg>
