<svg version="1.2" xmlns="http://www.w3.org/2000/svg" viewBox="0 0 93 88" width="93" height="88"><defs><linearGradient id="P" gradientUnits="userSpaceOnUse"/><linearGradient id="g1" x2="1" href="#P" gradientTransform="matrix(80.849,76.013,-85.389,90.82,6.005,6)"><stop stop-color="#00222f"/><stop offset="1" stop-color="#025f84"/></linearGradient></defs><style>.a{opacity:.7;mix-blend-mode:multiply;fill:url(#g1);stroke:#016a95;stroke-width:3}.b{opacity:.7;fill:none;stroke:#e32ad2;stroke-width:10}.c{opacity:.7;fill:none;stroke:#e32ad2;stroke-width:5}.d{fill:none;stroke:#e32ad2}.e{fill:#fff}</style><path class="a" d="m73.5 43.2q-0.4 0-0.9 0.2-0.4 0.2-0.7 0.5-0.4 0.4-0.5 0.8-0.2 0.4-0.2 0.9v31.8h-16.5v-13q0-0.4-0.2-0.8-0.2-0.5-0.5-0.8-0.3-0.3-0.7-0.5-0.4-0.2-0.9-0.2h-11.9q-0.5 0-0.9 0.2-0.4 0.2-0.8 0.5-0.3 0.3-0.5 0.7-0.2 0.5-0.2 0.9v13h-16.5v-30.8c0-0.6-0.2-1.2-0.6-1.6-0.5-0.4-1.1-0.6-1.7-0.6-0.6 0-1.1 0.2-1.6 0.6-0.4 0.4-0.6 1-0.6 1.6v33.2q0 0.4 0.1 0.8 0.2 0.4 0.5 0.7 0.3 0.4 0.7 0.5 0.4 0.2 0.9 0.2h21.2q0.4 0 0.8-0.2 0.4-0.1 0.8-0.5 0.3-0.3 0.4-0.7 0.2-0.4 0.2-0.8v-13h7.4v13q0 0.4 0.2 0.8 0.2 0.5 0.5 0.8 0.3 0.3 0.7 0.5 0.5 0.1 0.9 0.1h21.1q0.5 0 0.9-0.2 0.4-0.1 0.7-0.5 0.3-0.3 0.5-0.7 0.2-0.4 0.2-0.8v-34.2q0-0.5-0.2-0.9-0.1-0.4-0.5-0.8-0.3-0.3-0.7-0.5-0.4-0.1-0.9-0.2zm12.7 1.9l-18.4-18.5v-12.6q0-0.5-0.2-0.9-0.2-0.4-0.5-0.7-0.3-0.4-0.8-0.5-0.4-0.2-0.9-0.2-0.4 0-0.8 0.2-0.5 0.2-0.8 0.5-0.3 0.3-0.5 0.7-0.1 0.5-0.1 0.9v8l-15.2-15.3q-0.1-0.1-0.3-0.3-0.2-0.1-0.4-0.2-0.2-0.1-0.4-0.1-0.2-0.1-0.4-0.1-0.3 0-0.5 0.1-0.2 0-0.4 0.1-0.3 0.1-0.4 0.2-0.2 0.2-0.4 0.3l-38.1 38.1q-0.3 0.3-0.5 0.7-0.2 0.5-0.2 0.9 0 0.5 0.2 0.9 0.2 0.4 0.5 0.7 0.3 0.4 0.7 0.6 0.5 0.1 0.9 0.1 0.5 0 0.9-0.1 0.4-0.2 0.7-0.6l36.6-36.4 36.4 36.8q0.2 0.1 0.3 0.2 0.2 0.2 0.5 0.2 0.2 0.1 0.4 0.1 0.2 0.1 0.4 0.1 0.3 0 0.5-0.1 0.2 0 0.4-0.1 0.2-0.1 0.4-0.2 0.2-0.1 0.4-0.2 0.3-0.4 0.5-0.8 0.2-0.4 0.2-0.9 0-0.4-0.2-0.9-0.2-0.4-0.5-0.7z"/><path fill-rule="evenodd" class="b" d="m74.4 43.4q0.4 0.2 0.7 0.5 0.3 0.4 0.5 0.8 0.2 0.4 0.2 0.9v34.2q0 0.4-0.2 0.8-0.2 0.4-0.5 0.7-0.3 0.4-0.7 0.5-0.4 0.2-0.9 0.2h-21.1q-0.4 0-0.9-0.1-0.4-0.2-0.7-0.5-0.3-0.3-0.5-0.8-0.2-0.4-0.2-0.8v-13h-7.4v13q0 0.4-0.2 0.8-0.1 0.4-0.4 0.7-0.4 0.4-0.8 0.5-0.4 0.2-0.8 0.2h-21.2q-0.5 0-0.9-0.2-0.4-0.1-0.7-0.5-0.3-0.3-0.5-0.7-0.1-0.4-0.2-0.8v-33.2c0-0.6 0.3-1.2 0.7-1.6 0.4-0.4 1-0.6 1.6-0.6 0.6 0 1.2 0.2 1.6 0.6 0.5 0.4 0.7 1 0.7 1.6v30.8h16.5v-13q0-0.4 0.2-0.9 0.2-0.4 0.5-0.7 0.4-0.3 0.8-0.5 0.4-0.2 0.9-0.2h11.9q0.5 0 0.9 0.2 0.4 0.2 0.7 0.5 0.3 0.3 0.5 0.8 0.2 0.4 0.2 0.8v13h16.5v-31.8q0-0.5 0.2-0.9 0.1-0.4 0.5-0.8 0.3-0.3 0.7-0.5 0.5-0.2 0.9-0.2 0.5 0.1 0.9 0.2zm12.3 2.4q0.1 0.5 0.1 0.9 0 0.5-0.1 0.9-0.2 0.4-0.5 0.8-0.2 0.1-0.4 0.2-0.2 0.1-0.4 0.2-0.2 0.1-0.4 0.1-0.2 0.1-0.5 0.1-0.2 0-0.4-0.1-0.2 0-0.5-0.1-0.2 0-0.4-0.2-0.2-0.1-0.3-0.2l-36.5-36.8-36.5 36.4q-0.3 0.4-0.7 0.6-0.4 0.1-0.9 0.1-0.4 0-0.9-0.1-0.4-0.2-0.7-0.6-0.3-0.3-0.5-0.7-0.2-0.4-0.2-0.9 0-0.4 0.2-0.9 0.2-0.4 0.5-0.7l38.1-38.1q0.2-0.1 0.3-0.3 0.2-0.1 0.4-0.2 0.3-0.1 0.5-0.1 0.2-0.1 0.4-0.1 0.3 0 0.5 0.1 0.2 0 0.4 0.1 0.2 0.1 0.4 0.2 0.2 0.2 0.3 0.3l15.2 15.3v-8q0-0.4 0.1-0.9 0.2-0.4 0.5-0.7 0.3-0.3 0.8-0.5 0.4-0.2 0.8-0.2 0.5 0 0.9 0.2 0.5 0.1 0.8 0.5 0.3 0.3 0.5 0.7 0.2 0.4 0.2 0.9v12.6l18.4 18.5q0.3 0.3 0.5 0.7z"/><path fill-rule="evenodd" class="c" d="m74.4 43.4q0.4 0.2 0.7 0.5 0.3 0.4 0.5 0.8 0.2 0.4 0.2 0.9v34.2q0 0.4-0.2 0.8-0.2 0.4-0.5 0.7-0.3 0.4-0.7 0.5-0.4 0.2-0.9 0.2h-21.1q-0.4 0-0.9-0.1-0.4-0.2-0.7-0.5-0.3-0.3-0.5-0.8-0.2-0.4-0.2-0.8v-13h-7.4v13q0 0.4-0.2 0.8-0.1 0.4-0.4 0.7-0.4 0.4-0.8 0.5-0.4 0.2-0.8 0.2h-21.2q-0.5 0-0.9-0.2-0.4-0.1-0.7-0.5-0.3-0.3-0.5-0.7-0.1-0.4-0.2-0.8v-33.2c0-0.6 0.3-1.2 0.7-1.6 0.4-0.4 1-0.6 1.6-0.6 0.6 0 1.2 0.2 1.6 0.6 0.5 0.4 0.7 1 0.7 1.6v30.8h16.5v-13q0-0.4 0.2-0.9 0.2-0.4 0.5-0.7 0.4-0.3 0.8-0.5 0.4-0.2 0.9-0.2h11.9q0.5 0 0.9 0.2 0.4 0.2 0.7 0.5 0.3 0.3 0.5 0.8 0.2 0.4 0.2 0.8v13h16.5v-31.8q0-0.5 0.2-0.9 0.1-0.4 0.5-0.8 0.3-0.3 0.7-0.5 0.5-0.2 0.9-0.2 0.5 0.1 0.9 0.2zm12.3 2.4q0.1 0.5 0.1 0.9 0 0.5-0.1 0.9-0.2 0.4-0.5 0.8-0.2 0.1-0.4 0.2-0.2 0.1-0.4 0.2-0.2 0.1-0.4 0.1-0.2 0.1-0.5 0.1-0.2 0-0.4-0.1-0.2 0-0.5-0.1-0.2 0-0.4-0.2-0.2-0.1-0.3-0.2l-36.5-36.8-36.5 36.4q-0.3 0.4-0.7 0.6-0.4 0.1-0.9 0.1-0.4 0-0.9-0.1-0.4-0.2-0.7-0.6-0.3-0.3-0.5-0.7-0.2-0.4-0.2-0.9 0-0.4 0.2-0.9 0.2-0.4 0.5-0.7l38.1-38.1q0.2-0.1 0.3-0.3 0.2-0.1 0.4-0.2 0.3-0.1 0.5-0.1 0.2-0.1 0.4-0.1 0.3 0 0.5 0.1 0.2 0 0.4 0.1 0.2 0.1 0.4 0.2 0.2 0.2 0.3 0.3l15.2 15.3v-8q0-0.4 0.1-0.9 0.2-0.4 0.5-0.7 0.3-0.3 0.8-0.5 0.4-0.2 0.8-0.2 0.5 0 0.9 0.2 0.5 0.1 0.8 0.5 0.3 0.3 0.5 0.7 0.2 0.4 0.2 0.9v12.6l18.4 18.5q0.3 0.3 0.5 0.7z"/><path fill-rule="evenodd" class="d" d="m74.4 43.4q0.4 0.2 0.7 0.5 0.3 0.4 0.5 0.8 0.2 0.4 0.2 0.9v34.2q0 0.4-0.2 0.8-0.2 0.4-0.5 0.7-0.3 0.4-0.7 0.5-0.4 0.2-0.9 0.2h-21.1q-0.4 0-0.9-0.1-0.4-0.2-0.7-0.5-0.3-0.3-0.5-0.8-0.2-0.4-0.2-0.8v-13h-7.4v13q0 0.4-0.2 0.8-0.1 0.4-0.4 0.7-0.4 0.4-0.8 0.5-0.4 0.2-0.8 0.2h-21.2q-0.5 0-0.9-0.2-0.4-0.1-0.7-0.5-0.3-0.3-0.5-0.7-0.1-0.4-0.2-0.8v-33.2c0-0.6 0.3-1.2 0.7-1.6 0.4-0.4 1-0.6 1.6-0.6 0.6 0 1.2 0.2 1.6 0.6 0.5 0.4 0.7 1 0.7 1.6v30.8h16.5v-13q0-0.4 0.2-0.9 0.2-0.4 0.5-0.7 0.4-0.3 0.8-0.5 0.4-0.2 0.9-0.2h11.9q0.5 0 0.9 0.2 0.4 0.2 0.7 0.5 0.3 0.3 0.5 0.8 0.2 0.4 0.2 0.8v13h16.5v-31.8q0-0.5 0.2-0.9 0.1-0.4 0.5-0.8 0.3-0.3 0.7-0.5 0.5-0.2 0.9-0.2 0.5 0.1 0.9 0.2zm12.3 2.4q0.1 0.5 0.1 0.9 0 0.5-0.1 0.9-0.2 0.4-0.5 0.8-0.2 0.1-0.4 0.2-0.2 0.1-0.4 0.2-0.2 0.1-0.4 0.1-0.2 0.1-0.5 0.1-0.2 0-0.4-0.1-0.2 0-0.5-0.1-0.2 0-0.4-0.2-0.2-0.1-0.3-0.2l-36.5-36.8-36.5 36.4q-0.3 0.4-0.7 0.6-0.4 0.1-0.9 0.1-0.4 0-0.9-0.1-0.4-0.2-0.7-0.6-0.3-0.3-0.5-0.7-0.2-0.4-0.2-0.9 0-0.4 0.2-0.9 0.2-0.4 0.5-0.7l38.1-38.1q0.2-0.1 0.3-0.3 0.2-0.1 0.4-0.2 0.3-0.1 0.5-0.1 0.2-0.1 0.4-0.1 0.3 0 0.5 0.1 0.2 0 0.4 0.1 0.2 0.1 0.4 0.2 0.2 0.2 0.3 0.3l15.2 15.3v-8q0-0.4 0.1-0.9 0.2-0.4 0.5-0.7 0.3-0.3 0.8-0.5 0.4-0.2 0.8-0.2 0.5 0 0.9 0.2 0.5 0.1 0.8 0.5 0.3 0.3 0.5 0.7 0.2 0.4 0.2 0.9v12.6l18.4 18.5q0.3 0.3 0.5 0.7z"/><path class="e" d="m73.5 43.2q-0.4 0-0.9 0.2-0.4 0.2-0.7 0.5-0.4 0.4-0.5 0.8-0.2 0.4-0.2 0.9v31.8h-16.5v-13q0-0.4-0.2-0.8-0.2-0.5-0.5-0.8-0.3-0.3-0.7-0.5-0.4-0.2-0.9-0.2h-11.9q-0.5 0-0.9 0.2-0.4 0.2-0.8 0.5-0.3 0.3-0.5 0.7-0.2 0.5-0.2 0.9v13h-16.5v-30.8c0-0.6-0.2-1.2-0.7-1.6-0.4-0.4-1-0.6-1.6-0.6-0.6 0-1.2 0.2-1.6 0.6-0.4 0.4-0.7 1-0.7 1.6v33.2q0.1 0.4 0.2 0.8 0.2 0.4 0.5 0.7 0.3 0.4 0.7 0.5 0.4 0.2 0.9 0.2h21.2q0.4 0 0.8-0.2 0.4-0.1 0.8-0.5 0.3-0.3 0.4-0.7 0.2-0.4 0.2-0.8v-13h7.4v13q0 0.4 0.2 0.8 0.2 0.5 0.5 0.8 0.3 0.3 0.7 0.5 0.5 0.1 0.9 0.1h21.1q0.5 0 0.9-0.2 0.4-0.1 0.7-0.5 0.3-0.3 0.5-0.7 0.2-0.4 0.2-0.8v-34.2q0-0.5-0.2-0.9-0.2-0.4-0.5-0.8-0.3-0.3-0.7-0.5-0.4-0.1-0.9-0.2zm12.7 1.9l-18.4-18.5v-12.6q0-0.5-0.2-0.9-0.2-0.4-0.5-0.7-0.3-0.4-0.8-0.5-0.4-0.2-0.9-0.2-0.4 0-0.8 0.2-0.5 0.2-0.8 0.5-0.3 0.3-0.5 0.7-0.1 0.5-0.1 0.9v8l-15.2-15.3q-0.1-0.1-0.3-0.3-0.2-0.1-0.4-0.2-0.2-0.1-0.4-0.1-0.2-0.1-0.5-0.1-0.2 0-0.4 0.1-0.2 0-0.5 0.1-0.2 0.1-0.4 0.2-0.1 0.2-0.3 0.3l-38.1 38.1q-0.3 0.3-0.5 0.7-0.2 0.5-0.2 0.9 0 0.5 0.2 0.9 0.2 0.4 0.5 0.7 0.3 0.4 0.7 0.6 0.5 0.1 0.9 0.1 0.5 0 0.9-0.1 0.4-0.2 0.7-0.6l36.5-36.4 36.5 36.8q0.1 0.1 0.3 0.2 0.2 0.2 0.4 0.2 0.3 0.1 0.5 0.1 0.2 0.1 0.4 0.1 0.3 0 0.5-0.1 0.2 0 0.4-0.1 0.2-0.1 0.4-0.2 0.2-0.1 0.4-0.2 0.3-0.4 0.5-0.8 0.1-0.4 0.1-0.9 0-0.4-0.1-0.9-0.2-0.4-0.5-0.7z"/></svg>