<svg xmlns="http://www.w3.org/2000/svg" width="39.156" height="39.156" viewBox="0 0 39.156 39.156">
  <g id="icon-close-white" transform="translate(0.176 -0.424)">
    <path id="Caminho_1" data-name="Caminho 1" d="M.3,6.1l33,33c.9.9,2.8.5,4.3-.9,1.4-1.5,1.8-3.4.9-4.3L5.5.9C4.6,0,2.7.4,1.3,1.9-.2,3.3-.6,5.2.3,6.1Z" fill="#fff"/>
    <path id="Caminho_2" data-name="Caminho 2" d="M38.5,6.1l-33,33c-.9.9-2.8.5-4.2-.9-1.4-1.5-1.9-3.4-1-4.3l33-33c.9-.9,2.8-.5,4.3,1,1.4,1.4,1.8,3.3.9,4.2Z" fill="#fff"/>
  </g>
</svg>
