<svg version="1.2" xmlns="http://www.w3.org/2000/svg" viewBox="0 0 52 42" width="52" height="42"><style>.a{fill:#0087be}</style><path class="a" d="m49.4 34.7h-46.6c-1.3 0-2.4 1.7-2.4 3.7 0 2 1.1 3.7 2.4 3.7h46.6c1.3 0 2.4-1.7 2.4-3.7 0-2-1.1-3.7-2.4-3.7z"/><path class="a" d="m49.4 17.4h-46.6c-1.3 0-2.4 1.6-2.4 3.6 0 2.1 1.1 3.7 2.4 3.7h46.6c1.3 0 2.4-1.6 2.4-3.7 0-2-1.1-3.6-2.4-3.6z"/><path class="a" d="m49.4 0h-46.6c-1.3 0-2.4 1.6-2.4 3.7 0 2 1.1 3.7 2.4 3.7h46.6c1.3 0 2.4-1.7 2.4-3.7 0-2.1-1.1-3.7-2.4-3.7z"/></svg>