<svg version="1.2" xmlns="http://www.w3.org/2000/svg" viewBox="0 0 116 92" width="116" height="92"><style>.a{opacity:.6;mix-blend-mode:lighten;fill:#fff}.b{opacity:.6;mix-blend-mode:lighten;fill:none;stroke:#e32ad2;stroke-width:5}.c{mix-blend-mode:lighten;fill:#fff}.d{mix-blend-mode:lighten;fill:none;stroke:#e32ad2;stroke-width:3}.e{opacity:.8;fill:#fff}.f{opacity:.6;fill:#fff}.g{opacity:.6;fill:none;stroke:#e32ad2;stroke-width:5}.h{fill:#fff}.i{fill:none;stroke:#e32ad2;stroke-width:3}</style><g style="opacity:.7"><path fill-rule="evenodd" class="a" d="m104.9 15.7q0.4 0.1 0.6 0.4 0.3 0.3 0.4 0.6 0.2 0.3 0.2 0.7v62.4q0 0.4-0.2 0.7-0.1 0.4-0.4 0.6-0.2 0.3-0.6 0.4-0.3 0.2-0.7 0.2h-92.9q-0.3 0-0.7-0.2-0.3-0.1-0.6-0.4-0.2-0.2-0.4-0.6-0.1-0.3-0.1-0.7v-62.4q0-0.4 0.1-0.7 0.2-0.3 0.4-0.6 0.3-0.3 0.6-0.4 0.4-0.1 0.7-0.1h5v-3.4q0-0.3 0.1-0.6 0.1-0.3 0.3-0.6 0.2-0.2 0.5-0.4 0.3-0.2 0.6-0.2c14.7-3 30.4 2.3 40 9.1 9.1-6.6 25.1-12.2 40-9.1q0.3 0 0.5 0.2 0.3 0.2 0.5 0.4 0.2 0.3 0.3 0.6 0.1 0.3 0.1 0.6v3.4h5q0.4 0 0.7 0.1zm-45.3 61.4c10.8-4.1 22.8-8.8 35.9-8v-55.4q-1.1-0.2-2.3-0.3-0.5 0-1 0-0.6 0-1.1 0-0.5 0-1 0-0.5 0-1 0-1.2 0.1-2.4 0.2-1.2 0-2.4 0.2-1.2 0.1-2.3 0.2-1.2 0.2-2.4 0.3-0.4 0.1-0.8 0.1-0.5 0.1-0.9 0.2-0.4 0-0.8 0.1-0.4 0.1-0.9 0.2-2.2 0.6-4.4 1.4-2.1 0.8-4.2 1.8-2.1 1-4.1 2.1-2 1.2-3.9 2.5zm-39.6-8q1.4-0.1 2.8-0.1c12 0 23.2 4.3 33.1 8.1v-54.3c-8.3-6.1-22.6-11.2-35.9-9.1zm-6.8 9h34.6c-9.3-3.4-19-6.2-29.4-5.1q-0.4 0-0.8-0.1-0.4-0.1-0.7-0.4-0.3-0.3-0.4-0.6-0.2-0.4-0.2-0.8v-51.8h-3.1zm89.2-58.7h-3.2v51.8q0 0.4-0.1 0.8-0.2 0.3-0.5 0.6-0.3 0.2-0.6 0.4-0.4 0.1-0.8 0c-10.5-1-20.1 1.7-29.4 5.1h34.6z"/><path fill-rule="evenodd" class="b" d="m104.9 15.7q0.4 0.1 0.6 0.4 0.3 0.3 0.4 0.6 0.2 0.3 0.2 0.7v62.4q0 0.4-0.2 0.7-0.1 0.4-0.4 0.6-0.2 0.3-0.6 0.4-0.3 0.2-0.7 0.2h-92.9q-0.3 0-0.7-0.2-0.3-0.1-0.6-0.4-0.2-0.2-0.4-0.6-0.1-0.3-0.1-0.7v-62.4q0-0.4 0.1-0.7 0.2-0.3 0.4-0.6 0.3-0.3 0.6-0.4 0.4-0.1 0.7-0.1h5v-3.4q0-0.3 0.1-0.6 0.1-0.3 0.3-0.6 0.2-0.2 0.5-0.4 0.3-0.2 0.6-0.2c14.7-3 30.4 2.3 40 9.1 9.1-6.6 25.1-12.2 40-9.1q0.3 0 0.5 0.2 0.3 0.2 0.5 0.4 0.2 0.3 0.3 0.6 0.1 0.3 0.1 0.6v3.4h5q0.4 0 0.7 0.1zm-45.3 61.4c10.8-4.1 22.8-8.8 35.9-8v-55.4q-1.1-0.2-2.3-0.3-0.5 0-1 0-0.6 0-1.1 0-0.5 0-1 0-0.5 0-1 0-1.2 0.1-2.4 0.2-1.2 0-2.4 0.2-1.2 0.1-2.3 0.2-1.2 0.2-2.4 0.3-0.4 0.1-0.8 0.1-0.5 0.1-0.9 0.2-0.4 0-0.8 0.1-0.4 0.1-0.9 0.2-2.2 0.6-4.4 1.4-2.1 0.8-4.2 1.8-2.1 1-4.1 2.1-2 1.2-3.9 2.5zm-39.6-8q1.4-0.1 2.8-0.1c12 0 23.2 4.3 33.1 8.1v-54.3c-8.3-6.1-22.6-11.2-35.9-9.1zm-6.8 9h34.6c-9.3-3.4-19-6.2-29.4-5.1q-0.4 0-0.8-0.1-0.4-0.1-0.7-0.4-0.3-0.3-0.4-0.6-0.2-0.4-0.2-0.8v-51.8h-3.1zm89.2-58.7h-3.2v51.8q0 0.4-0.1 0.8-0.2 0.3-0.5 0.6-0.3 0.2-0.6 0.4-0.4 0.1-0.8 0c-10.5-1-20.1 1.7-29.4 5.1h34.6z"/><path fill-rule="evenodd" class="c" d="m104.9 15.7q0.4 0.1 0.6 0.4 0.3 0.3 0.4 0.6 0.2 0.3 0.2 0.7v62.4q0 0.4-0.2 0.7-0.1 0.4-0.4 0.6-0.2 0.3-0.6 0.4-0.3 0.2-0.7 0.2h-92.9q-0.3 0-0.7-0.2-0.3-0.1-0.6-0.4-0.2-0.2-0.4-0.6-0.1-0.3-0.1-0.7v-62.4q0-0.4 0.1-0.7 0.2-0.3 0.4-0.6 0.3-0.3 0.6-0.4 0.4-0.1 0.7-0.1h5v-3.4q0-0.3 0.1-0.6 0.1-0.3 0.3-0.6 0.2-0.2 0.5-0.4 0.3-0.2 0.6-0.2c14.7-3 30.4 2.3 40 9.1 9.1-6.6 25.1-12.2 40-9.1q0.3 0 0.5 0.2 0.3 0.2 0.5 0.4 0.2 0.3 0.3 0.6 0.1 0.3 0.1 0.6v3.4h5q0.4 0 0.7 0.1zm-45.3 61.4c10.8-4.1 22.8-8.8 35.9-8v-55.4q-1.1-0.2-2.3-0.3-0.5 0-1 0-0.6 0-1.1 0-0.5 0-1 0-0.5 0-1 0-1.2 0.1-2.4 0.2-1.2 0-2.4 0.2-1.2 0.1-2.3 0.2-1.2 0.2-2.4 0.3-0.4 0.1-0.8 0.1-0.5 0.1-0.9 0.2-0.4 0-0.8 0.1-0.4 0.1-0.9 0.2-2.2 0.6-4.4 1.4-2.1 0.8-4.2 1.8-2.1 1-4.1 2.1-2 1.2-3.9 2.5zm-39.6-8q1.4-0.1 2.8-0.1c12 0 23.2 4.3 33.1 8.1v-54.3c-8.3-6.1-22.6-11.2-35.9-9.1zm-6.8 9h34.6c-9.3-3.4-19-6.2-29.4-5.1q-0.4 0-0.8-0.1-0.4-0.1-0.7-0.4-0.3-0.3-0.4-0.6-0.2-0.4-0.2-0.8v-51.8h-3.1zm89.2-58.7h-3.2v51.8q0 0.4-0.1 0.8-0.2 0.3-0.5 0.6-0.3 0.2-0.6 0.4-0.4 0.1-0.8 0c-10.5-1-20.1 1.7-29.4 5.1h34.6z"/><path fill-rule="evenodd" class="d" d="m104.9 15.7q0.4 0.1 0.6 0.4 0.3 0.3 0.4 0.6 0.2 0.3 0.2 0.7v62.4q0 0.4-0.2 0.7-0.1 0.4-0.4 0.6-0.2 0.3-0.6 0.4-0.3 0.2-0.7 0.2h-92.9q-0.3 0-0.7-0.2-0.3-0.1-0.6-0.4-0.2-0.2-0.4-0.6-0.1-0.3-0.1-0.7v-62.4q0-0.4 0.1-0.7 0.2-0.3 0.4-0.6 0.3-0.3 0.6-0.4 0.4-0.1 0.7-0.1h5v-3.4q0-0.3 0.1-0.6 0.1-0.3 0.3-0.6 0.2-0.2 0.5-0.4 0.3-0.2 0.6-0.2c14.7-3 30.4 2.3 40 9.1 9.1-6.6 25.1-12.2 40-9.1q0.3 0 0.5 0.2 0.3 0.2 0.5 0.4 0.2 0.3 0.3 0.6 0.1 0.3 0.1 0.6v3.4h5q0.4 0 0.7 0.1zm-45.3 61.4c10.8-4.1 22.8-8.8 35.9-8v-55.4q-1.1-0.2-2.3-0.3-0.5 0-1 0-0.6 0-1.1 0-0.5 0-1 0-0.5 0-1 0-1.2 0.1-2.4 0.2-1.2 0-2.4 0.2-1.2 0.1-2.3 0.2-1.2 0.2-2.4 0.3-0.4 0.1-0.8 0.1-0.5 0.1-0.9 0.2-0.4 0-0.8 0.1-0.4 0.1-0.9 0.2-2.2 0.6-4.4 1.4-2.1 0.8-4.2 1.8-2.1 1-4.1 2.1-2 1.2-3.9 2.5zm-39.6-8q1.4-0.1 2.8-0.1c12 0 23.2 4.3 33.1 8.1v-54.3c-8.3-6.1-22.6-11.2-35.9-9.1zm-6.8 9h34.6c-9.3-3.4-19-6.2-29.4-5.1q-0.4 0-0.8-0.1-0.4-0.1-0.7-0.4-0.3-0.3-0.4-0.6-0.2-0.4-0.2-0.8v-51.8h-3.1zm89.2-58.7h-3.2v51.8q0 0.4-0.1 0.8-0.2 0.3-0.5 0.6-0.3 0.2-0.6 0.4-0.4 0.1-0.8 0c-10.5-1-20.1 1.7-29.4 5.1h34.6z"/><path fill-rule="evenodd" class="c" d="m104.9 15.7q0.4 0.1 0.6 0.4 0.3 0.3 0.4 0.6 0.2 0.3 0.2 0.7v62.4q0 0.4-0.2 0.7-0.1 0.4-0.4 0.6-0.2 0.3-0.6 0.4-0.3 0.2-0.7 0.2h-92.9q-0.3 0-0.7-0.2-0.3-0.1-0.6-0.4-0.2-0.2-0.4-0.6-0.1-0.3-0.1-0.7v-62.4q0-0.4 0.1-0.7 0.2-0.3 0.4-0.6 0.3-0.3 0.6-0.4 0.4-0.1 0.7-0.1h5v-3.4q0-0.3 0.1-0.6 0.1-0.3 0.3-0.6 0.2-0.2 0.5-0.4 0.3-0.2 0.6-0.2c14.7-3 30.4 2.3 40 9.1 9.1-6.6 25.1-12.2 40-9.1q0.3 0 0.5 0.2 0.3 0.2 0.5 0.4 0.2 0.3 0.3 0.6 0.1 0.3 0.1 0.6v3.4h5q0.4 0 0.7 0.1zm-45.3 61.4c10.8-4.1 22.8-8.8 35.9-8v-55.4q-1.1-0.2-2.3-0.3-0.5 0-1 0-0.6 0-1.1 0-0.5 0-1 0-0.5 0-1 0-1.2 0.1-2.4 0.2-1.2 0-2.4 0.2-1.2 0.1-2.3 0.2-1.2 0.2-2.4 0.3-0.4 0.1-0.8 0.1-0.5 0.1-0.9 0.2-0.4 0-0.8 0.1-0.4 0.1-0.9 0.2-2.2 0.6-4.4 1.4-2.1 0.8-4.2 1.8-2.1 1-4.1 2.1-2 1.2-3.9 2.5zm-39.6-8q1.4-0.1 2.8-0.1c12 0 23.2 4.3 33.1 8.1v-54.3c-8.3-6.1-22.6-11.2-35.9-9.1zm-6.8 9h34.6c-9.3-3.4-19-6.2-29.4-5.1q-0.4 0-0.8-0.1-0.4-0.1-0.7-0.4-0.3-0.3-0.4-0.6-0.2-0.4-0.2-0.8v-51.8h-3.1zm89.2-58.7h-3.2v51.8q0 0.4-0.1 0.8-0.2 0.3-0.5 0.6-0.3 0.2-0.6 0.4-0.4 0.1-0.8 0c-10.5-1-20.1 1.7-29.4 5.1h34.6z"/></g><path fill-rule="evenodd" class="e" d="m104.9 15.7q0.4 0.1 0.6 0.4 0.3 0.3 0.4 0.6 0.2 0.3 0.2 0.7v62.4q0 0.4-0.2 0.7-0.1 0.4-0.4 0.6-0.2 0.3-0.6 0.4-0.3 0.2-0.7 0.2h-92.9q-0.3 0-0.7-0.2-0.3-0.1-0.6-0.4-0.2-0.2-0.4-0.6-0.1-0.3-0.1-0.7v-62.4q0-0.4 0.1-0.7 0.2-0.3 0.4-0.6 0.3-0.3 0.6-0.4 0.4-0.1 0.7-0.1h5v-3.4q0-0.3 0.1-0.6 0.1-0.3 0.3-0.6 0.2-0.2 0.5-0.4 0.3-0.2 0.6-0.2c14.7-3 30.4 2.3 40 9.1 9.1-6.6 25.1-12.2 40-9.1q0.3 0 0.5 0.2 0.3 0.2 0.5 0.4 0.2 0.3 0.3 0.6 0.1 0.3 0.1 0.6v3.4h5q0.4 0 0.7 0.1zm-45.3 61.4c10.8-4.1 22.8-8.8 35.9-8v-55.4q-1.1-0.2-2.3-0.3-0.5 0-1 0-0.6 0-1.1 0-0.5 0-1 0-0.5 0-1 0-1.2 0.1-2.4 0.2-1.2 0-2.4 0.2-1.2 0.1-2.3 0.2-1.2 0.2-2.4 0.3-0.4 0.1-0.8 0.1-0.5 0.1-0.9 0.2-0.4 0-0.8 0.1-0.4 0.1-0.9 0.2-2.2 0.6-4.4 1.4-2.1 0.8-4.2 1.8-2.1 1-4.1 2.1-2 1.2-3.9 2.5zm-39.6-8q1.4-0.1 2.8-0.1c12 0 23.2 4.3 33.1 8.1v-54.3c-8.3-6.1-22.6-11.2-35.9-9.1zm-6.8 9h34.6c-9.3-3.4-19-6.2-29.4-5.1q-0.4 0-0.8-0.1-0.4-0.1-0.7-0.4-0.3-0.3-0.4-0.6-0.2-0.4-0.2-0.8v-51.8h-3.1zm89.2-58.7h-3.2v51.8q0 0.4-0.1 0.8-0.2 0.3-0.5 0.6-0.3 0.2-0.6 0.4-0.4 0.1-0.8 0c-10.5-1-20.1 1.7-29.4 5.1h34.6z"/><path fill-rule="evenodd" class="f" d="m104.9 15.7q0.4 0.1 0.6 0.4 0.3 0.3 0.4 0.6 0.2 0.3 0.2 0.7v62.4q0 0.4-0.2 0.7-0.1 0.4-0.4 0.6-0.2 0.3-0.6 0.4-0.3 0.2-0.7 0.2h-92.9q-0.3 0-0.7-0.2-0.3-0.1-0.6-0.4-0.2-0.2-0.4-0.6-0.1-0.3-0.1-0.7v-62.4q0-0.4 0.1-0.7 0.2-0.3 0.4-0.6 0.3-0.3 0.6-0.4 0.4-0.1 0.7-0.1h5v-3.4q0-0.3 0.1-0.6 0.1-0.3 0.3-0.6 0.2-0.2 0.5-0.4 0.3-0.2 0.6-0.2c14.7-3 30.4 2.3 40 9.1 9.1-6.6 25.1-12.2 40-9.1q0.3 0 0.5 0.2 0.3 0.2 0.5 0.4 0.2 0.3 0.3 0.6 0.1 0.3 0.1 0.6v3.4h5q0.4 0 0.7 0.1zm-45.3 61.4c10.8-4.1 22.8-8.8 35.9-8v-55.4q-1.1-0.2-2.3-0.3-0.5 0-1 0-0.6 0-1.1 0-0.5 0-1 0-0.5 0-1 0-1.2 0.1-2.4 0.2-1.2 0-2.4 0.2-1.2 0.1-2.3 0.2-1.2 0.2-2.4 0.3-0.4 0.1-0.8 0.1-0.5 0.1-0.9 0.2-0.4 0-0.8 0.1-0.4 0.1-0.9 0.2-2.2 0.6-4.4 1.4-2.1 0.8-4.2 1.8-2.1 1-4.1 2.1-2 1.2-3.9 2.5zm-39.6-8q1.4-0.1 2.8-0.1c12 0 23.2 4.3 33.1 8.1v-54.3c-8.3-6.1-22.6-11.2-35.9-9.1zm-6.8 9h34.6c-9.3-3.4-19-6.2-29.4-5.1q-0.4 0-0.8-0.1-0.4-0.1-0.7-0.4-0.3-0.3-0.4-0.6-0.2-0.4-0.2-0.8v-51.8h-3.1zm89.2-58.7h-3.2v51.8q0 0.4-0.1 0.8-0.2 0.3-0.5 0.6-0.3 0.2-0.6 0.4-0.4 0.1-0.8 0c-10.5-1-20.1 1.7-29.4 5.1h34.6z"/><path fill-rule="evenodd" class="g" d="m104.9 15.7q0.4 0.1 0.6 0.4 0.3 0.3 0.4 0.6 0.2 0.3 0.2 0.7v62.4q0 0.4-0.2 0.7-0.1 0.4-0.4 0.6-0.2 0.3-0.6 0.4-0.3 0.2-0.7 0.2h-92.9q-0.3 0-0.7-0.2-0.3-0.1-0.6-0.4-0.2-0.2-0.4-0.6-0.1-0.3-0.1-0.7v-62.4q0-0.4 0.1-0.7 0.2-0.3 0.4-0.6 0.3-0.3 0.6-0.4 0.4-0.1 0.7-0.1h5v-3.4q0-0.3 0.1-0.6 0.1-0.3 0.3-0.6 0.2-0.2 0.5-0.4 0.3-0.2 0.6-0.2c14.7-3 30.4 2.3 40 9.1 9.1-6.6 25.1-12.2 40-9.1q0.3 0 0.5 0.2 0.3 0.2 0.5 0.4 0.2 0.3 0.3 0.6 0.1 0.3 0.1 0.6v3.4h5q0.4 0 0.7 0.1zm-45.3 61.4c10.8-4.1 22.8-8.8 35.9-8v-55.4q-1.1-0.2-2.3-0.3-0.5 0-1 0-0.6 0-1.1 0-0.5 0-1 0-0.5 0-1 0-1.2 0.1-2.4 0.2-1.2 0-2.4 0.2-1.2 0.1-2.3 0.2-1.2 0.2-2.4 0.3-0.4 0.1-0.8 0.1-0.5 0.1-0.9 0.2-0.4 0-0.8 0.1-0.4 0.1-0.9 0.2-2.2 0.6-4.4 1.4-2.1 0.8-4.2 1.8-2.1 1-4.1 2.1-2 1.2-3.9 2.5zm-39.6-8q1.4-0.1 2.8-0.1c12 0 23.2 4.3 33.1 8.1v-54.3c-8.3-6.1-22.6-11.2-35.9-9.1zm-6.8 9h34.6c-9.3-3.4-19-6.2-29.4-5.1q-0.4 0-0.8-0.1-0.4-0.1-0.7-0.4-0.3-0.3-0.4-0.6-0.2-0.4-0.2-0.8v-51.8h-3.1zm89.2-58.7h-3.2v51.8q0 0.4-0.1 0.8-0.2 0.3-0.5 0.6-0.3 0.2-0.6 0.4-0.4 0.1-0.8 0c-10.5-1-20.1 1.7-29.4 5.1h34.6z"/><path fill-rule="evenodd" class="h" d="m104.9 15.7q0.4 0.1 0.6 0.4 0.3 0.3 0.4 0.6 0.2 0.3 0.2 0.7v62.4q0 0.4-0.2 0.7-0.1 0.4-0.4 0.6-0.2 0.3-0.6 0.4-0.3 0.2-0.7 0.2h-92.9q-0.3 0-0.7-0.2-0.3-0.1-0.6-0.4-0.2-0.2-0.4-0.6-0.1-0.3-0.1-0.7v-62.4q0-0.4 0.1-0.7 0.2-0.3 0.4-0.6 0.3-0.3 0.6-0.4 0.4-0.1 0.7-0.1h5v-3.4q0-0.3 0.1-0.6 0.1-0.3 0.3-0.6 0.2-0.2 0.5-0.4 0.3-0.2 0.6-0.2c14.7-3 30.4 2.3 40 9.1 9.1-6.6 25.1-12.2 40-9.1q0.3 0 0.5 0.2 0.3 0.2 0.5 0.4 0.2 0.3 0.3 0.6 0.1 0.3 0.1 0.6v3.4h5q0.4 0 0.7 0.1zm-45.3 61.4c10.8-4.1 22.8-8.8 35.9-8v-55.4q-1.1-0.2-2.3-0.3-0.5 0-1 0-0.6 0-1.1 0-0.5 0-1 0-0.5 0-1 0-1.2 0.1-2.4 0.2-1.2 0-2.4 0.2-1.2 0.1-2.3 0.2-1.2 0.2-2.4 0.3-0.4 0.1-0.8 0.1-0.5 0.1-0.9 0.2-0.4 0-0.8 0.1-0.4 0.1-0.9 0.2-2.2 0.6-4.4 1.4-2.1 0.8-4.2 1.8-2.1 1-4.1 2.1-2 1.2-3.9 2.5zm-39.6-8q1.4-0.1 2.8-0.1c12 0 23.2 4.3 33.1 8.1v-54.3c-8.3-6.1-22.6-11.2-35.9-9.1zm-6.8 9h34.6c-9.3-3.4-19-6.2-29.4-5.1q-0.4 0-0.8-0.1-0.4-0.1-0.7-0.4-0.3-0.3-0.4-0.6-0.2-0.4-0.2-0.8v-51.8h-3.1zm89.2-58.7h-3.2v51.8q0 0.4-0.1 0.8-0.2 0.3-0.5 0.6-0.3 0.2-0.6 0.4-0.4 0.1-0.8 0c-10.5-1-20.1 1.7-29.4 5.1h34.6z"/><path fill-rule="evenodd" class="i" d="m104.9 15.7q0.4 0.1 0.6 0.4 0.3 0.3 0.4 0.6 0.2 0.3 0.2 0.7v62.4q0 0.4-0.2 0.7-0.1 0.4-0.4 0.6-0.2 0.3-0.6 0.4-0.3 0.2-0.7 0.2h-92.9q-0.3 0-0.7-0.2-0.3-0.1-0.6-0.4-0.2-0.2-0.4-0.6-0.1-0.3-0.1-0.7v-62.4q0-0.4 0.1-0.7 0.2-0.3 0.4-0.6 0.3-0.3 0.6-0.4 0.4-0.1 0.7-0.1h5v-3.4q0-0.3 0.1-0.6 0.1-0.3 0.3-0.6 0.2-0.2 0.5-0.4 0.3-0.2 0.6-0.2c14.7-3 30.4 2.3 40 9.1 9.1-6.6 25.1-12.2 40-9.1q0.3 0 0.5 0.2 0.3 0.2 0.5 0.4 0.2 0.3 0.3 0.6 0.1 0.3 0.1 0.6v3.4h5q0.4 0 0.7 0.1zm-45.3 61.4c10.8-4.1 22.8-8.8 35.9-8v-55.4q-1.1-0.2-2.3-0.3-0.5 0-1 0-0.6 0-1.1 0-0.5 0-1 0-0.5 0-1 0-1.2 0.1-2.4 0.2-1.2 0-2.4 0.2-1.2 0.1-2.3 0.2-1.2 0.2-2.4 0.3-0.4 0.1-0.8 0.1-0.5 0.1-0.9 0.2-0.4 0-0.8 0.1-0.4 0.1-0.9 0.2-2.2 0.6-4.4 1.4-2.1 0.8-4.2 1.8-2.1 1-4.1 2.1-2 1.2-3.9 2.5zm-39.6-8q1.4-0.1 2.8-0.1c12 0 23.2 4.3 33.1 8.1v-54.3c-8.3-6.1-22.6-11.2-35.9-9.1zm-6.8 9h34.6c-9.3-3.4-19-6.2-29.4-5.1q-0.4 0-0.8-0.1-0.4-0.1-0.7-0.4-0.3-0.3-0.4-0.6-0.2-0.4-0.2-0.8v-51.8h-3.1zm89.2-58.7h-3.2v51.8q0 0.4-0.1 0.8-0.2 0.3-0.5 0.6-0.3 0.2-0.6 0.4-0.4 0.1-0.8 0c-10.5-1-20.1 1.7-29.4 5.1h34.6z"/><path fill-rule="evenodd" class="h" d="m104.9 15.7q0.4 0.1 0.6 0.4 0.3 0.3 0.4 0.6 0.2 0.3 0.2 0.7v62.4q0 0.4-0.2 0.7-0.1 0.4-0.4 0.6-0.2 0.3-0.6 0.4-0.3 0.2-0.7 0.2h-92.9q-0.3 0-0.7-0.2-0.3-0.1-0.6-0.4-0.2-0.2-0.4-0.6-0.1-0.3-0.1-0.7v-62.4q0-0.4 0.1-0.7 0.2-0.3 0.4-0.6 0.3-0.3 0.6-0.4 0.4-0.1 0.7-0.1h5v-3.4q0-0.3 0.1-0.6 0.1-0.3 0.3-0.6 0.2-0.2 0.5-0.4 0.3-0.2 0.6-0.2c14.7-3 30.4 2.3 40 9.1 9.1-6.6 25.1-12.2 40-9.1q0.3 0 0.5 0.2 0.3 0.2 0.5 0.4 0.2 0.3 0.3 0.6 0.1 0.3 0.1 0.6v3.4h5q0.4 0 0.7 0.1zm-45.3 61.4c10.8-4.1 22.8-8.8 35.9-8v-55.4q-1.1-0.2-2.3-0.3-0.5 0-1 0-0.6 0-1.1 0-0.5 0-1 0-0.5 0-1 0-1.2 0.1-2.4 0.2-1.2 0-2.4 0.2-1.2 0.1-2.3 0.2-1.2 0.2-2.4 0.3-0.4 0.1-0.8 0.1-0.5 0.1-0.9 0.2-0.4 0-0.8 0.1-0.4 0.1-0.9 0.2-2.2 0.6-4.4 1.4-2.1 0.8-4.2 1.8-2.1 1-4.1 2.1-2 1.2-3.9 2.5zm-39.6-8q1.4-0.1 2.8-0.1c12 0 23.2 4.3 33.1 8.1v-54.3c-8.3-6.1-22.6-11.2-35.9-9.1zm-6.8 9h34.6c-9.3-3.4-19-6.2-29.4-5.1q-0.4 0-0.8-0.1-0.4-0.1-0.7-0.4-0.3-0.3-0.4-0.6-0.2-0.4-0.2-0.8v-51.8h-3.1zm89.2-58.7h-3.2v51.8q0 0.4-0.1 0.8-0.2 0.3-0.5 0.6-0.3 0.2-0.6 0.4-0.4 0.1-0.8 0c-10.5-1-20.1 1.7-29.4 5.1h34.6z"/></svg>