<svg xmlns="http://www.w3.org/2000/svg" width="72.69" height="90.666" viewBox="0 0 72.69 90.666">
  <g id="_9274184ab80325a665497c9df208ef6d" data-name="9274184ab80325a665497c9df208ef6d" transform="translate(-36)">
    <rect id="Ret창ngulo_2020" data-name="Ret창ngulo 2020" width="21" height="16" transform="translate(36 11.666)" fill="#1487be"/>
    <rect id="Ret창ngulo_2021" data-name="Ret창ngulo 2021" width="21" height="5" transform="translate(36 30.666)" fill="#1487be"/>
    <path id="Caminho_22166" data-name="Caminho 22166" d="M61.628,90.666V33.676H40.9v56.99Zm-12.2-51.058a2.6,2.6,0,0,1,3.678,3.678,2.675,2.675,0,0,1-1.839.751,2.565,2.565,0,0,1-2.59-2.59,2.675,2.675,0,0,1,.75-1.839Zm0,10.362a2.6,2.6,0,0,1,3.678,3.678l-.389.311a1.962,1.962,0,0,1-.466.233,1.646,1.646,0,0,1-.466.155,3.51,3.51,0,0,1-.518.052,2.724,2.724,0,0,1-1.839-.751,2.675,2.675,0,0,1-.751-1.839,2.724,2.724,0,0,1,.75-1.839Zm0,10.362a2.71,2.71,0,0,1,2.357-.7,1.647,1.647,0,0,1,.466.155,1.962,1.962,0,0,1,.466.233,4.083,4.083,0,0,1,.389.311,2.627,2.627,0,0,1,0,3.678,2.675,2.675,0,0,1-1.839.751,2.724,2.724,0,0,1-1.839-.751,2.674,2.674,0,0,1-.544-.855,2.579,2.579,0,0,1-.207-.984,2.724,2.724,0,0,1,.75-1.838Zm38.1,30.334V31.085H74.581a2.591,2.591,0,0,1,0-5.181H87.533V18.133H74.581a2.591,2.591,0,0,1,0-5.181H87.533V0H66.809V90.666ZM15,38.857V90.666H35.724V38.857ZM22.979,79.32a2.335,2.335,0,0,1,1.4-1.4,2.415,2.415,0,0,1,1.477-.155,1.563,1.563,0,0,1,.492.155,1.44,1.44,0,0,1,.44.233,2.474,2.474,0,0,1,.414.311,2.724,2.724,0,0,1,.751,1.839,3.893,3.893,0,0,1-.052.518,1.647,1.647,0,0,1-.155.466,1.961,1.961,0,0,1-.233.466l-.311.389c-.13.1-.259.207-.414.311a1.44,1.44,0,0,1-.44.233,1.563,1.563,0,0,1-.492.155,3.174,3.174,0,0,1-.492.052,2.724,2.724,0,0,1-1.839-.751,2.675,2.675,0,0,1-.751-1.839,2.579,2.579,0,0,1,.205-.983Z" transform="translate(21.157)" fill="#1487be"/>
  </g>
</svg>
