<svg version="1.2" xmlns="http://www.w3.org/2000/svg" viewBox="0 0 261 260" width="261" height="260"><defs><linearGradient id="P" gradientUnits="userSpaceOnUse"/><linearGradient id="g1" x2="1" href="#P" gradientTransform="matrix(476.857,527.332,-524.572,474.361,-67,-47)"><stop stop-color="#014d6c"/><stop offset="1" stop-color="#0399d6"/></linearGradient></defs><style>tspan{white-space:pre}.a{opacity:.7;mix-blend-mode:multiply;fill:url(#g1)}.b{font-size: 36px;fill: #ffffff;font-family: "Helvetica"}.c{fill:#fff}.d{opacity:0;fill:none;stroke:#000}.e{opacity:0}</style><path class="a" d="m-67-15c0-17.7 14.3-32 32-32h412.9c17.6 0 32 14.3 32 32v463.3c0 17.7-14.4 32-32 32h-412.9c-17.7 0-32-14.3-32-32z"/><text style="transform:matrix(1,0,0,1,-92.533,315.922)" ><tspan x="0" y="0" class="b">Acesso a 
</tspan></text><text style="transform:matrix(1,0,0,1,60.467,357.922)" ><tspan x="0" y="0" class="b">conteúdos 
</tspan></text><text style="transform:matrix(1,0,0,1,199.467,399.922)" ><tspan x="0" y="0" class="b">exclusivos para 
</tspan></text><text style="transform:matrix(1,0,0,1,520.467,441.922)" ><tspan x="0" y="0" class="b">seu público
</tspan></text><path class="c" d="m-0.5 0h262v260h-262z"/><path class="d" d="m0 0.5h261v259h-261z"/><path  d="m234.5 244v-9h9v9zm-17 0v-9h9v9zm-36 0v-9h9v9zm-9 0v-9h9v9zm-28 0v-9h9v9zm-9 0v-9h9v9zm-9 0v-9h9v9zm-18 0v-9h9v9zm-9 0v-9h9v9zm-27 0v-9h9v9zm-9 0v-9h9v9zm-10 0v-9h10v9zm-9 0v-9h9v9zm-9 0v-9h9v9zm-9 0v-9h9v9zm-9 0v-9h9v9zm217-9v-8h9v8zm-8 0v-8h8v8zm-45 0v-8h9v8zm-9 0v-8h9v8zm-19 0v-8h9v8zm-9 0v-8h9v8zm-18 0v-8h9v8zm-9 0v-8h9v8zm-9 0v-8h9v8zm-36 0v-8h9v8zm-55 0v-8h9v8zm191-8v-9h9v9zm-64 0v-9h9v9zm-36 0v-9h9v9zm-18 0v-9h9v9zm-18 0v-9h9v9zm-19 0v-9h10v9zm-9 0v-9h9v9zm-9 0v-9h9v9zm-18 0v-9h9v9zm209-9v-9h8v9zm-18 0v-9h9v9zm-9 0v-9h9v9zm-9 0v-9h9v9zm-9 0v-9h9v9zm-9 0v-9h9v9zm-10 0v-9h10v9zm-27 0v-9h9v9zm-9 0v-9h9v9zm-54 0v-9h9v9zm-19 0v-9h10v9zm-9 0v-9h9v9zm-9 0v-9h9v9zm-18 0v-9h9v9zm209-9v-9h8v9zm-9 0v-9h9v9zm-9 0v-9h9v9zm-9 0v-9h9v9zm-9 0v-9h9v9zm-9 0v-9h9v9zm-9 0v-9h9v9zm-10 0v-9h10v9zm-9 0v-9h9v9zm-81 0v-9h9v9zm-19 0v-9h10v9zm-9 0v-9h9v9zm-9 0v-9h9v9zm-18 0v-9h9v9zm217-9v-9h9v9zm-26 0v-9h9v9zm-9 0v-9h9v9zm-37 0v-9h10v9zm-18 0v-9h9v9zm-72 0v-9h9v9zm-55 0v-9h9v9zm217-9v-9h9v9zm-8 0v-9h8v9zm-27 0v-9h9v9zm-18 0v-9h9v9zm-19 0v-9h10v9zm-9 0v-9h9v9zm-9 0v-9h9v9zm-9 0v-9h9v9zm-9 0v-9h9v9zm-9 0v-9h9v9zm-9 0v-9h9v9zm-9 0v-9h9v9zm-9 0v-9h9v9zm-18 0v-9h9v9zm-9 0v-9h9v9zm-10 0v-9h10v9zm-9 0v-9h9v9zm-9 0v-9h9v9zm-9 0v-9h9v9zm-9 0v-9h9v9zm209-9v-9h8v9zm-27 0v-9h9v9zm-37 0v-9h10v9zm-9 0v-9h9v9zm-18 0v-9h9v9zm-9 0v-9h9v9zm-27 0v-9h9v9zm-9 0v-9h9v9zm144-9v-10h9v10zm-8 0v-10h8v10zm-9 0v-10h9v10zm-18 0v-10h9v10zm-9 0v-10h9v10zm-9 0v-10h9v10zm-9 0v-10h9v10zm-10 0v-10h10v10zm-27 0v-10h9v10zm-9 0v-10h9v10zm-9 0v-10h9v10zm-9 0v-10h9v10zm-9 0v-10h9v10zm-18 0v-10h9v10zm-9 0v-10h9v10zm-37 0v-10h9v10zm-18 0v-10h9v10zm217-10v-9h9v9zm-8 0v-9h8v9zm-9 0v-9h9v9zm-36 0v-9h9v9zm-9 0v-9h9v9zm-19 0v-9h9v9zm-27 0v-9h9v9zm-9 0v-9h9v9zm-36 0v-9h9v9zm-18 0v-9h9v9zm-10 0v-9h10v9zm-27 0v-9h9v9zm-9 0v-9h9v9zm200-9v-9h9v9zm-55 0v-9h10v9zm-9 0v-9h9v9zm-36 0v-9h9v9zm-36 0v-9h9v9zm-9 0v-9h9v9zm-19 0v-9h10v9zm-9 0v-9h9v9zm-9 0v-9h9v9zm-9 0v-9h9v9zm-9 0v-9h9v9zm217-9v-9h9v9zm-8 0v-9h8v9zm-9 0v-9h9v9zm-9 0v-9h9v9zm-9 0v-9h9v9zm-9 0v-9h9v9zm-9 0v-9h9v9zm-19 0v-9h10v9zm-9 0v-9h9v9zm-27 0v-9h9v9zm-9 0v-9h9v9zm-9 0v-9h9v9zm-18 0v-9h9v9zm-9 0v-9h9v9zm-64 0v-9h9v9zm200-9v-9h9v9zm-18 0v-9h9v9zm-9 0v-9h9v9zm-28 0v-9h10v9zm-9 0v-9h9v9zm-9 0v-9h9v9zm-9 0v-9h9v9zm-9 0v-9h9v9zm-45 0v-9h9v9zm-9 0v-9h9v9zm-37 0v-9h9v9zm-9 0v-9h9v9zm-9 0v-9h9v9zm182-9v-9h9v9zm-27 0v-9h9v9zm-10 0v-9h10v9zm-18 0v-9h9v9zm-9 0v-9h9v9zm-18 0v-9h9v9zm-18 0v-9h9v9zm-9 0v-9h9v9zm-46 0v-9h9v9zm-18 0v-9h9v9zm200-9v-9h8v9zm-9 0v-9h9v9zm-36 0v-9h9v9zm-9 0v-9h9v9zm-10 0v-9h10v9zm-9 0v-9h9v9zm-9 0v-9h9v9zm-45 0v-9h9v9zm-9 0v-9h9v9zm-9 0v-9h9v9zm-9 0v-9h9v9zm-19 0v-9h10v9zm-9 0v-9h9v9zm-9 0v-9h9v9zm-9 0v-9h9v9zm191-9v-9h9v9zm-9 0v-9h9v9zm-46 0v-9h10v9zm-54 0v-9h9v9zm-27 0v-9h9v9zm-18 0v-9h9v9zm-19 0v-9h9v9zm-9 0v-9h9v9zm-18 0v-9h9v9zm217-9v-9h9v9zm-8 0v-9h8v9zm-9 0v-9h9v9zm-18 0v-9h9v9zm-9 0v-9h9v9zm-9 0v-9h9v9zm-9 0v-9h9v9zm-19 0v-9h9v9zm-9 0v-9h9v9zm-9 0v-9h9v9zm-9 0v-9h9v9zm-27 0v-9h9v9zm-9 0v-9h9v9zm-9 0v-9h9v9zm-9 0v-9h9v9zm-37 0v-9h9v9zm100-9v-9h9v9zm-18 0v-9h9v9zm-9 0v-9h9v9zm-9 0v-9h9v9zm-9 0v-9h9v9zm144-9v-9h9v9zm-8 0v-9h8v9zm-9 0v-9h9v9zm-9 0v-9h9v9zm-9 0v-9h9v9zm-9 0v-9h9v9zm-9 0v-9h9v9zm-19 0v-9h10v9zm-18 0v-9h9v9zm-18 0v-9h9v9zm-18 0v-9h9v9zm-18 0v-9h9v9zm-18 0v-9h9v9zm-9 0v-9h9v9zm-10 0v-9h10v9zm-9 0v-9h9v9zm-9 0v-9h9v9zm-9 0v-9h9v9zm-9 0v-9h9v9zm217-9v-9h9v9zm-53 0v-9h9v9zm-37 0v-9h9v9zm-54 0v-9h9v9zm-18 0v-9h9v9zm-55 0v-9h9v9zm217-9v-10h9v10zm-17 0v-10h9v10zm-9 0v-10h9v10zm-9 0v-10h9v10zm-18 0v-10h9v10zm-28 0v-10h9v10zm-9 0v-10h9v10zm-18 0v-10h9v10zm-27 0v-10h9v10zm-9 0v-10h9v10zm-18 0v-10h9v10zm-19 0v-10h10v10zm-9 0v-10h9v10zm-9 0v-10h9v10zm-18 0v-10h9v10zm217-10v-9h9v9zm-17 0v-9h9v9zm-9 0v-9h9v9zm-9 0v-9h9v9zm-18 0v-9h9v9zm-19 0v-9h10v9zm-9 0v-9h9v9zm-18 0v-9h9v9zm-9 0v-9h9v9zm-9 0v-9h9v9zm-18 0v-9h9v9zm-27 0v-9h9v9zm-19 0v-9h10v9zm-9 0v-9h9v9zm-9 0v-9h9v9zm-18 0v-9h9v9zm217-9v-9h9v9zm-17 0v-9h9v9zm-9 0v-9h9v9zm-9 0v-9h9v9zm-18 0v-9h9v9zm-19 0v-9h10v9zm-9 0v-9h9v9zm-27 0v-9h9v9zm-9 0v-9h9v9zm-18 0v-9h9v9zm-9 0v-9h9v9zm-18 0v-9h9v9zm-19 0v-9h10v9zm-9 0v-9h9v9zm-9 0v-9h9v9zm-18 0v-9h9v9zm217-9v-9h9v9zm-53 0v-9h9v9zm-28 0v-9h9v9zm-27 0v-9h9v9zm-27 0v-9h9v9zm-9 0v-9h9v9zm-18 0v-9h9v9zm-55 0v-9h9v9zm217-9v-9h9v9zm-8 0v-9h8v9zm-9 0v-9h9v9zm-9 0v-9h9v9zm-9 0v-9h9v9zm-9 0v-9h9v9zm-9 0v-9h9v9zm-19 0v-9h10v9zm-18 0v-9h9v9zm-18 0v-9h9v9zm-9 0v-9h9v9zm-27 0v-9h9v9zm-18 0v-9h9v9zm-9 0v-9h9v9zm-10 0v-9h10v9zm-9 0v-9h9v9zm-9 0v-9h9v9zm-9 0v-9h9v9zm-9 0v-9h9v9z"/><path fill-rule="evenodd" class="e" d="m243.5 244h-9v-9h9zm-17 0h-9v-9h9zm-36 0h-9v-9h9zm-9 0h-9v-9h9zm-28 0h-9v-9h9zm-9 0h-9v-9h9zm-9 0h-9v-9h9zm-18 0h-9v-9h9zm-9 0h-9v-9h9zm-27 0h-9v-9h9zm-9 0h-9v-9h9zm-9 0h-10v-9h10zm-10 0h-9v-9h9zm-9 0h-9v-9h9zm-9 0h-9v-9h9zm-9 0h-9v-9h9zm217-9h-9v-8h9zm-9 0h-8v-8h8zm-44 0h-9v-8h9zm-9 0h-9v-8h9zm-19 0h-9v-8h9zm-9 0h-9v-8h9zm-18 0h-9v-8h9zm-9 0h-9v-8h9zm-9 0h-9v-8h9zm-36 0h-9v-8h9zm-55 0h-9v-8h9zm191-8h-9v-9h9zm-64 0h-9v-9h9zm-36 0h-9v-9h9zm-18 0h-9v-9h9zm-18 0h-9v-9h9zm-18 0h-10v-9h10zm-10 0h-9v-9h9zm-9 0h-9v-9h9zm-18 0h-9v-9h9zm208-9h-8v-9h8zm-17 0h-9v-9h9zm-9 0h-9v-9h9zm-9 0h-9v-9h9zm-9 0h-9v-9h9zm-9 0h-9v-9h9zm-9 0h-10v-9h10zm-28 0h-9v-9h9zm-9 0h-9v-9h9zm-54 0h-9v-9h9zm-18 0h-10v-9h10zm-10 0h-9v-9h9zm-9 0h-9v-9h9zm-18 0h-9v-9h9zm208-9h-8v-9h8zm-8 0h-9v-9h9zm-9 0h-9v-9h9zm-9 0h-9v-9h9zm-9 0h-9v-9h9zm-9 0h-9v-9h9zm-9 0h-9v-9h9zm-9 0h-10v-9h10zm-10 0h-9v-9h9zm-81 0h-9v-9h9zm-18 0h-10v-9h10zm-10 0h-9v-9h9zm-9 0h-9v-9h9zm-18 0h-9v-9h9zm217-9h-9v-9h9zm-26 0h-9v-9h9zm-9 0h-9v-9h9zm-36 0h-10v-9h10zm-19 0h-9v-9h9zm-72 0h-9v-9h9zm-55 0h-9v-9h9zm217-9h-9v-9h9zm-9 0h-8v-9h8zm-26 0h-9v-9h9zm-18 0h-9v-9h9zm-18 0h-10v-9h10zm-10 0h-9v-9h9zm-9 0h-9v-9h9zm-9 0h-9v-9h9zm-9 0h-9v-9h9zm-9 0h-9v-9h9zm-9 0h-9v-9h9zm-9 0h-9v-9h9zm-9 0h-9v-9h9zm-18 0h-9v-9h9zm-9 0h-9v-9h9zm-9 0h-10v-9h10zm-10 0h-9v-8.9h9zm-9 0h-9v-9h9zm-9 0h-9v-9h9zm-9 0h-9v-9h9zm208-9h-8v-9h8zm-26 0h-9v-9h9zm-36 0h-10v-9h10zm-10 0h-9v-9h9zm-18 0h-9v-9.1h9zm-9 0h-9v-9h9zm-27 0h-9v-9h9zm-9 0h-9v-9h9zm144-9h-9v-10h9zm-9 0h-8v-10h8zm-8 0h-9v-10h9zm-18 0h-9v-10h9zm-9 0h-9v-10h9zm-9 0h-9v-10h9zm-9 0h-9v-10h9zm-9 0h-10v-10h10zm-28 0h-9v-10h9zm-9 0h-9v-10h9zm-9 0h-9v-10h9zm-9 0h-9v-10h9zm-9 0h-9v-10h9zm-18 0h-9v-10h9zm-9 0h-9v-10h9zm-37 0h-9v-10h9zm-18 0h-9v-10h9zm217-10h-9v-9h9zm-9 0h-8v-9h8zm-8 0h-9v-9h9zm-36 0h-9v-9h9zm-9 0h-9v-8.9h9zm-19 0h-9v-9h9zm-27 0h-9v-9h9zm-9 0h-9v-9h9zm-36 0h-9v-9h9zm-18 0h-9v-9h9zm-9 0h-10v-9h10zm-28 0h-9v-9h9zm-9 0h-9v-9h9zm200-9h-9v-9h9zm-54 0h-10v-9h10zm-10 0h-9v-9h9zm-36 0h-9v-9h9zm-36 0h-9v-9h9zm-9 0h-9v-9h9zm-18 0h-10v-9h10zm-10 0h-9v-9h9zm-9 0h-9v-9h9zm-9 0h-9v-9h9zm-9 0h-9v-9h9zm217-9h-9v-9h9zm-9 0h-8v-9h8zm-8 0h-9v-9h9zm-9 0h-9v-9h9zm-9 0h-9v-9h9zm-9 0h-9v-9h9zm-9 0h-9v-9h9zm-18 0h-10v-9h10zm-10 0h-9v-9h9zm-27 0h-9v-9h9zm-9 0h-9v-9.1h9zm-9 0h-9v-9h9zm-18 0h-9v-9h9zm-9 0h-9v-9h9zm-64 0h-9v-9h9zm200-9h-9v-9h9zm-18 0h-9v-9h9zm-9 0h-9v-9h9zm-27 0h-10v-9h10zm-10 0h-9v-9h9zm-9 0h-9v-8.9h9zm-9 0h-9v-9h9zm-9 0h-9v-9h9zm-45 0h-9v-9h9zm-9 0h-9v-9h9zm-37 0h-9v-9h9zm-9 0h-9v-9h9zm-9 0h-9v-9h9zm182-9h-9v-9h9zm-27 0h-9v-9h9zm-9 0h-10v-9h10zm-19 0h-9v-9h9zm-9 0h-9v-9h9zm-18 0h-9v-9h9zm-18 0h-9v-9h9zm-9 0h-9v-9h9zm-46 0h-9v-9.1h9zm-18 0h-9v-9h9zm199-9h-8v-9h8zm-8 0h-9v-9h9zm-36 0h-9v-9h9zm-9 0h-9v-9h9zm-9 0h-10v-8.9h10zm-10 0h-9v-9h9zm-9 0h-9v-9h9zm-45 0h-9v-9h9zm-9 0h-9v-9h9zm-9 0h-9v-9h9zm-9 0h-9v-9h9zm-18 0h-10v-9h10zm-10 0h-9v-9h9zm-9 0h-9v-9h9zm-9 0h-9v-9h9zm191-9h-9v-9h9zm-9 0h-9v-9h9zm-45 0h-10v-9h10zm-55 0h-9v-9h9zm-27 0h-9v-9h9zm-18 0h-9v-9h9zm-19 0h-9v-9h9zm-9 0h-9v-9h9zm-18 0h-9v-9h9zm217-9h-9v-9h9zm-9 0h-8v-9h8zm-8 0h-9v-9h9zm-18 0h-9v-9h9zm-9 0h-9v-9h9zm-9 0h-9v-9h9zm-9 0h-9v-9h9zm-19 0h-9v-9h9zm-9 0h-9v-9h9zm-9 0h-9v-9h9zm-9 0h-9v-9h9zm-27 0h-9v-9h9zm-9 0h-9v-9h9zm-9 0h-9v-9h9zm-9 0h-9v-9h9zm-37 0h-9v-9h9zm100-9h-9v-9h9zm-18 0h-9v-9h9zm-9 0h-9v-9h9zm-9 0h-9v-9h9zm-9 0h-9v-9h9zm144-9h-9v-9h9zm-9 0h-8v-9h8zm-8 0h-9v-9h9zm-9 0h-9v-9h9zm-9 0h-9v-9h9zm-9 0h-9v-9.1h9zm-9 0h-9v-9h9zm-18 0h-10v-9h10zm-19 0h-9v-9h9zm-18 0h-9v-9h9zm-18 0h-9v-9h9zm-18 0h-9v-9h9zm-18 0h-9v-9h9zm-9 0h-9v-9h9zm-9 0h-10v-9h10zm-10 0h-9v-9h9zm-9 0h-9v-9h9zm-9 0h-9v-9h9zm-9 0h-9v-9h9zm217-9h-9v-9h9zm-53 0h-9v-9h9zm-37 0h-9v-9h9zm-54 0h-9v-9h9zm-18 0h-9v-9h9zm-55 0h-9v-9h9zm217-9h-9v-10h9zm-17 0h-9v-10h9zm-9 0h-9v-10h9zm-9 0h-9v-10h9zm-18 0h-9v-10h9zm-28 0h-9v-10h9zm-9 0h-9v-10h9zm-18 0h-9v-10h9zm-27 0h-9v-10h9zm-9 0h-9v-10h9zm-18 0h-9v-10h9zm-18 0h-10v-10h10zm-10 0h-9v-10h9zm-9 0h-9v-10h9zm-18 0h-9v-10h9zm217-10h-9v-9h9zm-17 0h-9v-9h9zm-9 0h-9v-9h9zm-9 0h-9v-9h9zm-18 0h-9v-9h9zm-18 0h-10v-9h10zm-10 0h-9v-9h9zm-18 0h-9v-9h9zm-9 0h-9v-9h9zm-9 0h-9v-9h9zm-18 0h-9v-9h9zm-27 0h-9v-9h9zm-18 0h-10v-9h10zm-10 0h-9v-9h9zm-9 0h-9v-9h9zm-18 0h-9v-9h9zm217-9h-9v-9h9zm-17 0h-9v-9h9zm-9 0h-9v-9h9zm-9 0h-9v-9h9zm-18 0h-9v-9h9zm-18 0h-10v-9h10zm-10 0h-9v-9h9zm-27 0h-9v-9h9zm-9 0h-9v-9h9zm-18 0h-9v-9h9zm-9 0h-9v-9h9zm-18 0h-9v-9h9zm-18 0h-10v-9h10zm-10 0h-9v-9h9zm-9 0h-9v-9h9zm-18 0h-9v-9h9zm217-9h-9v-9h9zm-53 0h-9v-9h9zm-28 0h-9v-9h9zm-27 0h-9v-9h9zm-27 0h-9v-9h9zm-9 0h-9v-9h9zm-18 0h-9v-9h9zm-55 0h-9v-9h9zm217-9h-9v-9h9zm-9 0h-8v-9h8zm-8 0h-9v-9h9zm-9 0h-9v-9h9zm-9 0h-9v-9h9zm-9 0h-9v-9h9zm-9 0h-9v-9h9zm-18 0h-10v-9h10zm-19 0h-9v-9h9zm-18 0h-9v-9h9zm-9 0h-9v-9h9zm-27 0h-9v-9h9zm-18 0h-9v-9h9zm-9 0h-9v-9h9zm-9 0h-10v-9h10zm-10 0h-9v-9h9zm-9 0h-9v-9h9zm-9 0h-9v-9h9zm-9 0h-9v-9.1h9zm216 216v-7h-7v7zm-17 0v-7h-7v7zm-36 0v-7h-7v7zm-9 0v-7h-7v7zm-28 0v-7h-7v7zm-9 0v-7h-7v7zm-9 0v-7h-7v7zm-18 0v-7h-7v7zm-9 0v-7h-7v7zm-27 0v-7h-7v7zm-9 0v-7h-7v7zm-9 0v-7h-8v7zm-10 0v-7h-7v7zm-9 0v-7h-7v7zm-9 0v-7h-7v7zm-9 0v-7h-7v7zm217-9v-6h-7v6zm-9 0v-6h-6v6zm-44 0v-6h-7v6zm-9 0v-6h-7v6zm-19 0v-6h-7v6zm-9 0v-6h-7v6zm-18 0v-6h-7v6zm-9 0v-6h-7v6zm-9 0v-6h-7v6zm-36 0v-6h-7v6zm-55 0v-6h-7v6zm191-8v-7h-7v7zm-64 0v-7h-7v7zm-36 0v-7h-7v7zm-18 0v-7h-7v7zm-18 0v-7h-7v7zm-18 0v-7h-8v7zm-10 0v-7h-7v7zm-9 0v-7h-7v7zm-18 0v-7h-7v7zm208-9v-7h-6v7zm-17 0v-7h-7v7zm-9 0v-7h-7v7zm-9 0v-7h-7v7zm-9 0v-7h-7v7zm-9 0v-7h-7v7zm-9 0v-7h-8v7zm-28 0v-7h-7v7zm-9 0v-7h-7v7zm-54 0v-7h-7v7zm-18 0v-7h-8v7zm-10 0v-7h-7v7zm-9 0v-7h-7v7zm-18 0v-7h-7v7zm208-9v-7h-6v7zm-8 0v-7h-7v7zm-9 0v-7h-7v7zm-9 0v-7h-7v7zm-9 0v-7h-7v7zm-9 0v-7h-7v7zm-9 0v-7h-7v7zm-9 0v-7h-8v7zm-10 0v-7h-7v7zm-81 0v-7h-7v7zm-18 0v-7h-8v7zm-10 0v-7h-7v7zm-9 0v-7h-7v7zm-18 0v-7h-7v7zm217-9v-7h-7v7zm-26 0v-7h-7v7zm-9 0v-7h-7v7zm-36 0v-7h-8v7zm-19 0v-7h-7v7zm-72 0v-7h-7v7zm-55 0v-7h-7v7zm217-9v-7h-7v7zm-9 0v-7h-6v7zm-26 0v-7h-7v7zm-18 0v-7h-7v7zm-18 0v-7h-8v7zm-10 0v-7h-7v7zm-9 0v-7h-7v7zm-9 0v-7h-7v7zm-9 0v-7h-7v7zm-9 0v-7h-7v7zm-9 0v-7h-7v7zm-9 0v-7h-7v7zm-9 0v-7h-7v7zm-18 0v-7h-7v7zm-9 0v-7h-7v7zm-9 0v-7h-8v7zm-10 0v-7h-7v7zm-9 0v-7h-7v7zm-9 0v-7h-7v7zm-9 0v-7h-7v7zm208-9v-7h-6v7zm-26 0v-7h-7v7zm-36 0v-7h-8v7zm-10 0v-7h-7v7zm-18 0v-7h-7v7zm-9 0v-7h-7v7zm-27 0v-7h-7v7zm-9 0v-7h-7v7zm144-9v-8h-7v8zm-9 0v-8h-6v8zm-8 0v-8h-7v8zm-18 0v-8h-7v8zm-9 0v-8h-7v8zm-9 0v-8h-7v8zm-9 0v-8h-7v8zm-9 0v-8h-8v8zm-28 0v-8h-7v8zm-9 0v-8h-7v8zm-9 0v-8h-7v8zm-9 0v-8h-7v8zm-9 0v-8h-7v8zm-18 0v-8h-7v8zm-9 0v-8h-7v8zm-37 0v-8h-7v8zm-18 0v-8h-7v8zm217-10v-7h-7v7zm-9 0v-7h-6v7zm-8 0v-7h-7v7zm-36 0v-7h-7v7zm-9 0v-7h-7v7zm-19 0v-7h-7v7zm-27 0v-7h-7v7zm-9 0v-7h-7v7zm-36 0v-7h-7v7zm-18 0v-7h-7v7zm-9 0v-7h-8v7zm-28 0v-7h-7v7zm-9 0v-7h-7v7zm200-9v-7h-7v7zm-54 0v-7h-8v7zm-10 0v-7h-7v7zm-36 0v-7h-7v7zm-36 0v-7h-7v7zm-9 0v-7h-7v7zm-18 0v-7h-8v7zm-10 0v-7h-7v7zm-9 0v-7h-7v7zm-9 0v-7h-7v7zm-9 0v-7h-7v7zm217-9v-7h-7v7zm-9 0v-7h-6v7zm-8 0v-7h-7v7zm-9 0v-7h-7v7zm-9 0v-7h-7v7zm-9 0v-7h-7v7zm-9 0v-7h-7v7zm-18 0v-7h-8v7zm-10 0v-7h-7v7zm-27 0v-7h-7v7zm-9 0v-7h-7v7zm-9 0v-7h-7v7zm-18 0v-7h-7v7zm-9 0v-7h-7v7zm-64 0v-7h-7v7zm200-9v-7h-7v7zm-18 0v-7h-7v7zm-9 0v-7h-7v7zm-27 0v-7h-8v7zm-10 0v-7h-7v7zm-9 0v-7h-7v7zm-9 0v-7h-7v7zm-9 0v-7h-7v7zm-45 0v-7h-7v7zm-9 0v-7h-7v7zm-37 0v-7h-7v7zm-9 0v-7h-7v7zm-9 0v-7h-7v7zm182-9v-7h-7v7zm-27 0v-7h-7v7zm-9 0v-7h-8v7zm-19 0v-7h-7v7zm-9 0v-7h-7v7zm-18 0v-7h-7v7zm-18 0v-7h-7v7zm-9 0v-7h-7v7zm-46 0v-7h-7v7zm-18 0v-7h-7v7zm199-9v-7h-6v7zm-8 0v-7h-7v7zm-36 0v-7h-7v7zm-9 0v-7h-7v7zm-9 0v-7h-8v7zm-10 0v-7h-7v7zm-9 0v-7h-7v7zm-45 0v-7h-7v7zm-9 0v-7h-7v7zm-9 0v-7h-7v7zm-9.1 0v-7h-6.9v7zm-18 0v-7h-8v7zm-10 0v-7h-7v7zm-9.1 0v-7h-6.9v7zm-9 0v-7h-7v7zm190.9-9v-7h-7v7zm-8.9 0v-7h-7v7zm-45 0v-7h-8v7zm-55 0v-7h-7v7zm-27 0v-7h-7v7zm-18 0v-7h-7v7zm-19 0v-7h-7v7zm-9 0v-7h-7v7zm-18 0v-7h-7v7zm217-9v-7h-7v7zm-9 0v-7h-6.1v7zm-8 0v-7h-6.9v7zm-18 0v-7h-7v7zm-9.1 0v-7h-6.9v7zm-9 0v-7h-7.1v7zm-9 0v-7h-7v7zm-18.9 0v-7h-7v7zm-9 0v-7h-7v7zm-9.1 0v-7h-6.9v7zm-9 0v-7h-7v7zm-27 0v-7h-7.1v7zm-9 0v-7h-7v7zm-9 0v-7h-7v7zm-9 0v-7h-7v7zm-37 0v-7h-7v7zm100-9v-7h-6.9v7zm-18.1 0v-7h-6.9v7zm-9 0v-7h-7v7zm-9 0v-7h-7v7zm-9 0v-7h-7v7zm144-9v-7h-7v7zm-9 0v-7h-6.1v7zm-8 0v-7h-6.9v7zm-9 0v-7h-7v7zm-9 0v-7h-7v7zm-9 0v-7h-7v7zm-9 0v-7h-7v7zm-18 0v-7h-8v7zm-19 0v-7h-7.1v7zm-18 0v-7h-7v7zm-18 0v-7h-7v7zm-18 0v-7h-7v7zm-18 0v-7h-6.9v7zm-9 0v-7h-7v7zm-9 0v-7h-8v7zm-10 0v-7h-7v7zm-9 0v-7h-7v7zm-9 0v-7h-7v7zm-9.1 0v-7h-6.9v7zm217-9v-7h-7v7zm-53 0v-7h-7.1v7zm-37 0v-7h-7v7zm-54 0v-7h-7v7zm-18 0v-7h-7v7zm-55 0v-7h-7v7zm217.1-9v-8h-7.1v8zm-17 0v-8h-7v8zm-9 0v-8h-6.9v8zm-9 0v-8h-7.1v8zm-18 0v-8h-7v8zm-28 0v-8h-7v8zm-9 0v-8h-7v8zm-18 0v-8h-7v8zm-27 0v-8h-7v8zm-9 0v-8h-7v8zm-18 0v-8h-7v8zm-18 0v-8h-8v8zm-10 0v-8h-7v8zm-9 0v-8h-7v8zm-18 0v-8h-7v8zm217-10v-7h-7v7zm-17 0v-7h-7v7zm-9 0v-7h-7v7zm-9 0v-7h-7v7zm-18 0v-7h-7v7zm-18 0v-7h-8v7zm-10 0v-7h-7v7zm-18 0v-7h-7v7zm-9 0v-7h-7v7zm-9 0v-7h-7v7zm-18 0v-7h-7v7zm-27 0v-7h-7v7zm-18 0v-7h-8v7zm-10 0v-7h-7v7zm-9 0v-7h-7v7zm-18 0v-7h-7v7zm217-9v-7h-7v7zm-17 0v-7h-7v7zm-9 0v-7h-7v7zm-9 0v-7h-7v7zm-18 0v-7h-7v7zm-18 0v-7h-8v7zm-10 0v-7h-7v7zm-27 0v-7h-7v7zm-9 0v-7h-7v7zm-18 0v-7h-7v7zm-9 0v-7h-7v7zm-18 0v-7h-7v7zm-18 0v-7h-8v7zm-10 0v-7h-7v7zm-9 0v-7h-7v7zm-18 0v-7h-7v7zm217-9v-7h-7v7zm-53 0v-7h-7v7zm-28 0v-7h-7v7zm-27 0v-7h-7v7zm-27 0v-7h-7v7zm-9 0v-7h-7v7zm-18 0v-7h-7v7zm-55 0v-7h-7v7zm217-9v-7h-7v7zm-9 0v-7h-6v7zm-8 0v-7h-7v7zm-9 0v-7h-7v7zm-9 0v-7h-7v7zm-9 0v-7h-7v7zm-9 0v-7h-7v7zm-18 0v-7h-8v7zm-19 0v-7h-7v7zm-18 0v-7h-7v7zm-9 0v-7h-7v7zm-27 0v-7h-7v7zm-18 0v-7h-7v7zm-9 0v-7h-7v7zm-9 0v-7h-8v7zm-10 0v-7h-7v7zm-9 0v-7h-7v7zm-9 0v-7h-7v7zm-9 0v-7h-7v7z"/></svg>