<svg xmlns="http://www.w3.org/2000/svg" xmlns:xlink="http://www.w3.org/1999/xlink" width="1356.63" height="848" viewBox="0 0 1356.63 848">
  <defs>
    <clipPath id="clip-path">
      <rect id="Retângulo_1625" data-name="Retângulo 1625" width="1356.63" height="848" fill="none"/>
    </clipPath>
  </defs>
  <g id="Grupo_2473" data-name="Grupo 2473" transform="translate(-345.686 -579.5)">
    <g id="Grupo_2412" data-name="Grupo 2412" transform="translate(345.686 579.5)">
      <g id="Grupo_2405" data-name="Grupo 2405">
        <g id="Grupo_2404" data-name="Grupo 2404" clip-path="url(#clip-path)">
          <path id="Caminho_22073" data-name="Caminho 22073" d="M196.429,18.084v664.9H1368.76" transform="translate(-12.124 -1.116)" fill="none" stroke="#fff" stroke-width="3"/>
        </g>
      </g>
      <line id="Linha_71" data-name="Linha 71" x1="37.829" transform="translate(146.475 16.968)" fill="none" stroke="#fff" stroke-width="3"/>
      <line id="Linha_72" data-name="Linha 72" x1="37.829" transform="translate(146.475 151.552)" fill="none" stroke="#fff" stroke-width="3"/>
      <line id="Linha_73" data-name="Linha 73" x1="37.829" transform="translate(146.475 287.088)" fill="none" stroke="#fff" stroke-width="3"/>
      <line id="Linha_74" data-name="Linha 74" x1="37.829" transform="translate(146.475 422.623)" fill="none" stroke="#fff" stroke-width="3"/>
      <line id="Linha_75" data-name="Linha 75" x1="37.829" transform="translate(146.475 490.179)" fill="none" stroke="#fff" stroke-width="3"/>
      <line id="Linha_76" data-name="Linha 76" x1="37.829" transform="translate(146.475 355.068)" fill="none" stroke="#fff" stroke-width="3"/>
      <line id="Linha_77" data-name="Linha 77" x1="37.829" transform="translate(146.475 219.956)" fill="none" stroke="#fff" stroke-width="3"/>
      <line id="Linha_78" data-name="Linha 78" x1="37.829" transform="translate(146.475 84.844)" fill="none" stroke="#fff" stroke-width="3"/>
      <line id="Linha_79" data-name="Linha 79" x1="37.829" transform="translate(146.475 558.159)" fill="none" stroke="#fff" stroke-width="3"/>
      <line id="Linha_80" data-name="Linha 80" y1="37.829" transform="translate(278.049 682.145)" fill="none" stroke="#fff" stroke-width="3"/>
      <line id="Linha_81" data-name="Linha 81" y1="37.829" transform="translate(451.772 682.145)" fill="none" stroke="#fff" stroke-width="3"/>
      <line id="Linha_82" data-name="Linha 82" y1="37.829" transform="translate(625.495 682.145)" fill="none" stroke="#fff" stroke-width="3"/>
      <line id="Linha_83" data-name="Linha 83" y1="37.829" transform="translate(799.218 682.145)" fill="none" stroke="#fff" stroke-width="3"/>
      <line id="Linha_84" data-name="Linha 84" y1="37.829" transform="translate(972.941 682.145)" fill="none" stroke="#fff" stroke-width="3"/>
      <line id="Linha_85" data-name="Linha 85" y1="37.829" transform="translate(1146.664 682.145)" fill="none" stroke="#fff" stroke-width="3"/>
      <line id="Linha_86" data-name="Linha 86" y1="37.829" transform="translate(1320.388 682.145)" fill="none" stroke="#fff" stroke-width="3"/>
      <path id="_6" data-name="6" d="M6.4-8.36A3.091,3.091,0,0,1,9.79-5.28,3.06,3.06,0,0,1,6.4-2.244,3.072,3.072,0,0,1,3.014-5.28,3.1,3.1,0,0,1,6.4-8.36Zm-4.664,0A5.7,5.7,0,0,0,.792-5.28,5.24,5.24,0,0,0,6.4,0a5.228,5.228,0,0,0,5.61-5.28A5.193,5.193,0,0,0,9.46-9.834,4.909,4.909,0,0,0,5.72-10.1l3.894-5.5H6.886Z" transform="translate(270.326 751.116)" fill="#fff"/>
      <path id="_12" data-name="12" d="M6.468,0V-15.4H4.686L.528-9.548,1.958-8.4l2.31-3.036V0Zm5.148-10.538a3.063,3.063,0,0,1,3.146-2.948c3.586,0,4.18,3.652,1.76,5.39h.022L9.306-1.716V0h10.8V-2.134H13.046L18.018-6.4c4.158-2.9,2.574-9.306-3.256-9.306-3.212,0-4.972,2.244-5.368,4.994Z" transform="translate(439.038 751.116)" fill="#fff"/>
      <path id="_18" data-name="18" d="M6.468,0V-15.4H4.686L.528-9.548,1.958-8.4l2.31-3.036V0Zm8.6-1.848c-2.222,0-3.344-1.364-3.344-2.552,0-1.21,1.122-2.508,3.344-2.508,2.266,0,3.366,1.3,3.366,2.508C18.436-3.212,17.336-1.848,15.07-1.848Zm0-11.836a2.537,2.537,0,0,1,2.728,2.31,2.533,2.533,0,0,1-2.728,2.42,2.523,2.523,0,0,1-2.706-2.4A2.534,2.534,0,0,1,15.07-13.684ZM20-11.308c0-2.178-1.65-4.334-4.928-4.334-2.354,0-4.884,1.386-4.906,4.312a3.456,3.456,0,0,0,2.024,3.278,4.131,4.131,0,0,0-2.662,3.63C9.526-1.98,11.4.22,15.07.22c3.718,0,5.588-2.332,5.588-4.642a3.9,3.9,0,0,0-2.6-3.63A3.771,3.771,0,0,0,20-11.308Z" transform="translate(609.863 751.116)" fill="#fff"/>
      <path id="_24" data-name="24" d="M3.234-10.538A3.063,3.063,0,0,1,6.38-13.486c3.586,0,4.18,3.652,1.76,5.39h.022L.924-1.716V0h10.8V-2.134H4.664L9.636-6.4c4.158-2.9,2.574-9.306-3.256-9.306-3.212,0-4.972,2.244-5.368,4.994Zm10.428,5.5v1.562H21.34V0h2.2V-3.476h1.254V-5.632H23.54v-9.922H21.824Zm2.9-.55L21.384-11.7v6.116Z" transform="translate(783.577 751.116)" fill="#fff"/>
      <path id="_30" data-name="30" d="M4.312-7.106h2.31A2.628,2.628,0,0,1,9.416-4.488c0,1.276-1.034,2.728-3.476,2.728A2.874,2.874,0,0,1,2.794-4.092L.726-3.718C1.078-1.606,2.64.308,5.94.308c3.7,0,5.544-2.354,5.566-4.576a4.409,4.409,0,0,0-1.98-3.938,3.2,3.2,0,0,0,1.408-2.97c-.022-3.124-2.64-4.356-5.126-4.356a4.573,4.573,0,0,0-4.642,3.476l2,.484a2.619,2.619,0,0,1,2.64-1.848c1.452,0,2.926.572,2.926,2.244A1.929,1.929,0,0,1,6.622-9.13H4.312ZM20.13-13.354c2.486,0,3.608,2.618,3.608,5.676,0,2.9-1.122,5.654-3.608,5.654s-3.564-2.75-3.564-5.654C16.566-10.736,17.644-13.354,20.13-13.354Zm0,13.508c3.916,0,5.9-3.916,5.9-7.832,0-3.938-1.98-7.876-5.9-7.876-3.938,0-5.874,3.938-5.874,7.876C14.256-3.762,16.192.154,20.13.154Z" transform="translate(957.638 751.116)" fill="#fff"/>
      <path id="_36" data-name="36" d="M4.312-7.106h2.31A2.628,2.628,0,0,1,9.416-4.488c0,1.276-1.034,2.728-3.476,2.728A2.874,2.874,0,0,1,2.794-4.092L.726-3.718C1.078-1.606,2.64.308,5.94.308c3.7,0,5.544-2.354,5.566-4.576a4.409,4.409,0,0,0-1.98-3.938,3.2,3.2,0,0,0,1.408-2.97c-.022-3.124-2.64-4.356-5.126-4.356a4.573,4.573,0,0,0-4.642,3.476l2,.484a2.619,2.619,0,0,1,2.64-1.848c1.452,0,2.926.572,2.926,2.244A1.929,1.929,0,0,1,6.622-9.13H4.312ZM19.536-8.36a3.091,3.091,0,0,1,3.388,3.08,3.06,3.06,0,0,1-3.388,3.036A3.072,3.072,0,0,1,16.148-5.28,3.1,3.1,0,0,1,19.536-8.36Zm-4.664,0a5.7,5.7,0,0,0-.946,3.08A5.24,5.24,0,0,0,19.536,0a5.228,5.228,0,0,0,5.61-5.28,5.193,5.193,0,0,0-2.552-4.554,4.909,4.909,0,0,0-3.74-.264l3.894-5.5H20.02Z" transform="translate(1131.085 751.116)" fill="#fff"/>
      <path id="_42" data-name="42" d="M.726-5.038v1.562H8.4V0h2.2V-3.476h1.254V-5.632H10.6v-9.922H8.888Zm2.9-.55L8.448-11.7v6.116Zm13.024-4.95A3.063,3.063,0,0,1,19.8-13.486c3.586,0,4.18,3.652,1.76,5.39h.022l-7.238,6.38V0h10.8V-2.134H18.084L23.056-6.4c4.158-2.9,2.574-9.306-3.256-9.306-3.212,0-4.972,2.244-5.368,4.994Z" transform="translate(1305.065 751.116)" fill="#fff"/>
      <path id="Sobrevida_global_" data-name="Sobrevida global, %" d="M12.864-12.552c-.432-3.072-3.12-4.416-5.712-4.416a6.477,6.477,0,0,0-5.088,2.232,4.544,4.544,0,0,0-.912,3.192v-.024c.264,3.5,3.336,4.08,5.952,4.344,1.68.168,3.408.384,3.7,1.656a2.69,2.69,0,0,1,.072.576c0,1.728-1.968,2.736-3.768,2.736-1.56,0-3.456-.816-3.624-2.376v.1L3.456-4.9l-2.448.048.024.456C1.344-1.392,4.488.144,7.08.144c3.024,0,6.24-1.872,6.24-5.112a5.969,5.969,0,0,0-.12-1.1C12.552-8.76,9.7-9.36,7.392-9.648c-1.8-.168-3.7-.384-3.816-2.112a2.2,2.2,0,0,1,.408-1.56,4,4,0,0,1,3.048-1.272c1.464-.024,3.1.624,3.432,2.136ZM29.712-6.48c0-4.464-3.456-6.72-6.96-6.72-3.528,0-7.032,2.232-7.032,6.72,0,4.464,3.48,6.72,6.96,6.72C26.208.24,29.712-1.992,29.712-6.48Zm-11.64,0a4.463,4.463,0,0,1,4.68-4.632A4.466,4.466,0,0,1,27.384-6.48a4.462,4.462,0,0,1-4.7,4.608A4.455,4.455,0,0,1,18.072-6.48ZM35.352-16.8H33V0h2.352V-1.752A5.151,5.151,0,0,0,39.672.216c4.536,0,6.72-3.192,6.72-6.768A6.335,6.335,0,0,0,39.72-13.2a5.02,5.02,0,0,0-4.368,1.9Zm0,10.3a4.311,4.311,0,0,1,4.416-4.632A4.328,4.328,0,0,1,44.04-6.552c.024,2.376-1.488,4.752-4.464,4.68A4.292,4.292,0,0,1,35.352-6.5Zm13.92-6.456V0H51.6V-7.032a4.026,4.026,0,0,1,5.208-3.96v-2.064a4.648,4.648,0,0,0-5.208,1.68V-12.96Zm22.44,5.9a6.371,6.371,0,0,0-6.648-6.12,6.426,6.426,0,0,0-6.744,6.7,6.459,6.459,0,0,0,6.7,6.72,6.484,6.484,0,0,0,6.312-4.248H68.9a4.187,4.187,0,0,1-3.864,2.16,4.331,4.331,0,0,1-4.368-4.08H71.664A3.5,3.5,0,0,0,71.712-7.056ZM60.768-7.872a4.086,4.086,0,0,1,4.3-3.24,3.942,3.942,0,0,1,4.176,3.24ZM79.2-3.144,77.616-7.7l-2.136-5.28h-2.5L78.264.1h1.872l5.256-13.08H82.9L80.784-7.656ZM90.1,0H87.744V-13.128H90.1Zm-2.64-16.32a1.467,1.467,0,0,0,2.928,0C90.384-18.144,87.456-18.1,87.456-16.32ZM104.472-11.3a5.02,5.02,0,0,0-4.368-1.9c-4.392,0-6.888,2.928-6.888,6.648,0,3.864,2.376,6.768,6.912,6.768a5.166,5.166,0,0,0,4.344-1.968V0h2.352V-16.8h-2.352Zm0,4.8a4.3,4.3,0,0,1-4.248,4.632,4.307,4.307,0,0,1-4.656-4.68,4.509,4.509,0,0,1,4.488-4.584A4.311,4.311,0,0,1,104.472-6.5Zm17.136-6.48.024,1.728a5.644,5.644,0,0,0-4.7-1.944,6.556,6.556,0,0,0-6.936,6.648A6.568,6.568,0,0,0,116.976.216c1.608-.024,3.7-.552,4.632-1.968V0h2.352V-12.984Zm0,6.48a4.529,4.529,0,0,1-4.536,4.632,4.5,4.5,0,0,1-4.728-4.68,4.383,4.383,0,0,1,4.536-4.584A4.55,4.55,0,0,1,121.608-6.5ZM146.3-.48v-12.5h-2.328v1.728a5.205,5.205,0,0,0-4.344-1.944A6.5,6.5,0,0,0,132.7-6.456c0,3.528,2.52,6.432,6.888,6.432a5.084,5.084,0,0,0,4.368-1.824V-.48c0,2.5-2.28,3.48-4.344,3.5-1.7.024-3.96-.5-3.96-2.16H133.32c0,2.952,3.048,4.248,6.312,4.248C142.848,5.112,146.3,3.552,146.3-.48ZM139.56-2.088a4.313,4.313,0,0,1-4.512-4.368,4.535,4.535,0,0,1,4.68-4.68,4.074,4.074,0,0,1,4.224,4.32C143.952-4.416,142.488-2.088,139.56-2.088ZM152.3-16.8h-2.352V0H152.3Zm17.04,10.32c0-4.464-3.456-6.72-6.96-6.72-3.528,0-7.032,2.232-7.032,6.72,0,4.464,3.48,6.72,6.96,6.72C165.84.24,169.344-1.992,169.344-6.48Zm-11.64,0a4.463,4.463,0,0,1,4.68-4.632,4.466,4.466,0,0,1,4.632,4.632,4.462,4.462,0,0,1-4.7,4.608A4.455,4.455,0,0,1,157.7-6.48Zm17.28-10.32h-2.352V0h2.352V-1.752A5.151,5.151,0,0,0,179.3.216c4.536,0,6.72-3.192,6.72-6.768a6.335,6.335,0,0,0-6.672-6.648,5.02,5.02,0,0,0-4.368,1.9Zm0,10.3a4.311,4.311,0,0,1,4.416-4.632,4.328,4.328,0,0,1,4.272,4.584c.024,2.376-1.488,4.752-4.464,4.68A4.292,4.292,0,0,1,174.984-6.5Zm25.056-6.48.024,1.728a5.644,5.644,0,0,0-4.7-1.944,6.556,6.556,0,0,0-6.936,6.648A6.568,6.568,0,0,0,195.408.216c1.608-.024,3.7-.552,4.632-1.968V0h2.352V-12.984Zm0,6.48A4.529,4.529,0,0,1,195.5-1.872a4.5,4.5,0,0,1-4.728-4.68,4.383,4.383,0,0,1,4.536-4.584A4.55,4.55,0,0,1,200.04-6.5ZM208.1-16.8h-2.352V0H208.1Zm4.272,19.2,2.232-4.416h-2.616L210.24,2.4Zm17.592-15.264a4.1,4.1,0,0,0-4.128-4.08,4.1,4.1,0,0,0-4.1,4.08,4.092,4.092,0,0,0,4.1,4.056A4.1,4.1,0,0,0,229.968-12.864Zm4.752-3.744L223.8.216h2.736L237.48-16.608Zm-6.984,3.744a1.922,1.922,0,0,1-1.9,1.992,1.918,1.918,0,0,1-1.872-1.992,1.94,1.94,0,0,1,1.872-2.016A1.943,1.943,0,0,1,227.736-12.864Zm12.072,8.928a4.1,4.1,0,0,0-4.128-4.08,4.082,4.082,0,0,0-4.1,4.08A4.077,4.077,0,0,0,235.68.12,4.1,4.1,0,0,0,239.808-3.936Zm-2.232,0a1.922,1.922,0,0,1-1.9,1.992,1.938,1.938,0,0,1-1.9-1.992,1.959,1.959,0,0,1,1.9-2.016A1.943,1.943,0,0,1,237.576-3.936Z" transform="translate(62.771 463.045) rotate(-90)" fill="#fff"/>
      <path id="Tempo_meses" data-name="Tempo, meses" d="M7.656,0V-14.664H12.72v-2.3H.144v2.3H5.232V0ZM25.008-7.056a6.371,6.371,0,0,0-6.648-6.12,6.426,6.426,0,0,0-6.744,6.7,6.459,6.459,0,0,0,6.7,6.72,6.484,6.484,0,0,0,6.312-4.248H22.2a4.187,4.187,0,0,1-3.864,2.16,4.331,4.331,0,0,1-4.368-4.08H24.96A3.5,3.5,0,0,0,25.008-7.056ZM14.064-7.872a4.086,4.086,0,0,1,4.3-3.24,3.942,3.942,0,0,1,4.176,3.24ZM28.416-13.2V0h2.352V-7.056c0-2.544,1.56-3.96,3.624-3.96,2.16,0,2.856,1.9,2.856,3.72V0H39.6V-7.32c0-2.112,1.152-3.7,3.456-3.7,2.256,0,2.712,1.824,2.712,3.648V0H48.12V-7.392c0-3.288-1.56-5.808-5.136-5.808a4.526,4.526,0,0,0-4.152,2.256c-.96-1.824-2.592-2.256-4.416-2.256a4.125,4.125,0,0,0-3.648,1.824V-13.2ZM54.072-1.7A5.068,5.068,0,0,0,58.44.216a6.361,6.361,0,0,0,6.7-6.672c0-3.576-2.184-6.768-6.72-6.744a5.147,5.147,0,0,0-4.344,1.944v-1.728H51.72V3.792h2.352Zm0-4.8a4.324,4.324,0,0,1,4.248-4.632c2.976-.072,4.488,2.3,4.464,4.68a4.332,4.332,0,0,1-4.3,4.584A4.311,4.311,0,0,1,54.072-6.5ZM81.72-6.48c0-4.464-3.456-6.72-6.96-6.72-3.528,0-7.032,2.232-7.032,6.72,0,4.464,3.48,6.72,6.96,6.72C78.216.24,81.72-1.992,81.72-6.48Zm-11.64,0a4.463,4.463,0,0,1,4.68-4.632A4.466,4.466,0,0,1,79.392-6.48a4.462,4.462,0,0,1-4.7,4.608A4.455,4.455,0,0,1,70.08-6.48ZM84.84,2.4l2.232-4.416H84.456L82.7,2.4ZM96.288-13.2V0H98.64V-7.056c0-2.544,1.56-3.96,3.624-3.96,2.16,0,2.856,1.9,2.856,3.72V0h2.352V-7.32c0-2.112,1.152-3.7,3.456-3.7,2.256,0,2.712,1.824,2.712,3.648V0h2.352V-7.392c0-3.288-1.56-5.808-5.136-5.808a4.526,4.526,0,0,0-4.152,2.256c-.96-1.824-2.592-2.256-4.416-2.256a4.125,4.125,0,0,0-3.648,1.824V-13.2Zm35.88,6.144a6.371,6.371,0,0,0-6.648-6.12,6.426,6.426,0,0,0-6.744,6.7,6.459,6.459,0,0,0,6.7,6.72,6.484,6.484,0,0,0,6.312-4.248H129.36a4.187,4.187,0,0,1-3.864,2.16,4.331,4.331,0,0,1-4.368-4.08H132.12A3.505,3.505,0,0,0,132.168-7.056Zm-10.944-.816a4.086,4.086,0,0,1,4.3-3.24,3.942,3.942,0,0,1,4.176,3.24ZM136.9-9.24c0-1.344,1.344-1.9,2.784-1.9,1.416,0,2.64.552,2.76,1.7h2.328c-.168-2.712-2.448-3.816-5.016-3.816-2.52,0-5.184,1.056-5.184,4.056,0,2.9,2.76,3.624,5.088,3.72,1.128.048,3.168.288,3.144,1.752,0,1.488-1.776,1.872-2.952,1.9-1.632.024-3.024-.7-3.12-2.16h-2.352c.168,3.072,2.664,4.2,5.352,4.2,2.448,0,5.424-.888,5.424-3.912,0-2.952-2.784-3.72-5.232-3.888C138.768-7.656,136.9-7.608,136.9-9.24Zm23.616,2.184a6.371,6.371,0,0,0-6.648-6.12,6.426,6.426,0,0,0-6.744,6.7,6.459,6.459,0,0,0,6.7,6.72,6.484,6.484,0,0,0,6.312-4.248H157.7a4.187,4.187,0,0,1-3.864,2.16,4.331,4.331,0,0,1-4.368-4.08h10.992A3.505,3.505,0,0,0,160.512-7.056Zm-10.944-.816a4.086,4.086,0,0,1,4.3-3.24,3.942,3.942,0,0,1,4.176,3.24ZM165.24-9.24c0-1.344,1.344-1.9,2.784-1.9,1.416,0,2.64.552,2.76,1.7h2.328c-.168-2.712-2.448-3.816-5.016-3.816-2.52,0-5.184,1.056-5.184,4.056,0,2.9,2.76,3.624,5.088,3.72,1.128.048,3.168.288,3.144,1.752,0,1.488-1.776,1.872-2.952,1.9-1.632.024-3.024-.7-3.12-2.16H162.72c.168,3.072,2.664,4.2,5.352,4.2,2.448,0,5.424-.888,5.424-3.912,0-2.952-2.784-3.72-5.232-3.888C167.112-7.656,165.24-7.608,165.24-9.24Z" transform="translate(761.688 799.016)" fill="#fff"/>
      <g id="Grupo_2474" data-name="Grupo 2474" transform="translate(170.576 28.514)">
        <rect id="Retângulo_1628" data-name="Retângulo 1628" width="57.441" height="57.441" rx="8" transform="translate(871 85)" fill="#209d4e"/>
        <path id="Lorem_ipsum" data-name="Lorem ipsum" d="M4.488-16.8H2.064V0h10.32V-2.424h-7.9ZM27.168-6.48c0-4.464-3.456-6.72-6.96-6.72-3.528,0-7.032,2.232-7.032,6.72,0,4.464,3.48,6.72,6.96,6.72C23.664.24,27.168-1.992,27.168-6.48Zm-11.64,0a4.463,4.463,0,0,1,4.68-4.632A4.466,4.466,0,0,1,24.84-6.48a4.462,4.462,0,0,1-4.7,4.608A4.455,4.455,0,0,1,15.528-6.48Zm14.856-6.48V0h2.328V-7.032a4.026,4.026,0,0,1,5.208-3.96v-2.064a4.648,4.648,0,0,0-5.208,1.68V-12.96Zm22.44,5.9a6.371,6.371,0,0,0-6.648-6.12,6.426,6.426,0,0,0-6.744,6.7,6.459,6.459,0,0,0,6.7,6.72A6.484,6.484,0,0,0,52.44-4.008H50.016a4.187,4.187,0,0,1-3.864,2.16,4.331,4.331,0,0,1-4.368-4.08H52.776A3.5,3.5,0,0,0,52.824-7.056ZM41.88-7.872a4.086,4.086,0,0,1,4.3-3.24,3.942,3.942,0,0,1,4.176,3.24ZM56.232-13.2V0h2.352V-7.056c0-2.544,1.56-3.96,3.624-3.96,2.16,0,2.856,1.9,2.856,3.72V0h2.352V-7.32c0-2.112,1.152-3.7,3.456-3.7,2.256,0,2.712,1.824,2.712,3.648V0h2.352V-7.392c0-3.288-1.56-5.808-5.136-5.808a4.526,4.526,0,0,0-4.152,2.256c-.96-1.824-2.592-2.256-4.416-2.256a4.125,4.125,0,0,0-3.648,1.824V-13.2ZM88.032,0H85.68V-13.128h2.352Zm-2.64-16.32a1.467,1.467,0,0,0,2.928,0C88.32-18.144,85.392-18.1,85.392-16.32ZM94.32-1.7A5.068,5.068,0,0,0,98.688.216a6.361,6.361,0,0,0,6.7-6.672c0-3.576-2.184-6.768-6.72-6.744a5.147,5.147,0,0,0-4.344,1.944v-1.728H91.968V3.792H94.32Zm0-4.8a4.324,4.324,0,0,1,4.248-4.632c2.976-.072,4.488,2.3,4.464,4.68a4.332,4.332,0,0,1-4.3,4.584A4.311,4.311,0,0,1,94.32-6.5ZM110.16-9.24c0-1.344,1.344-1.9,2.784-1.9,1.416,0,2.64.552,2.76,1.7h2.328c-.168-2.712-2.448-3.816-5.016-3.816-2.52,0-5.184,1.056-5.184,4.056,0,2.9,2.76,3.624,5.088,3.72,1.128.048,3.168.288,3.144,1.752,0,1.488-1.776,1.872-2.952,1.9-1.632.024-3.024-.7-3.12-2.16H107.64c.168,3.072,2.664,4.2,5.352,4.2,2.448,0,5.424-.888,5.424-3.912,0-2.952-2.784-3.72-5.232-3.888C112.032-7.656,110.16-7.608,110.16-9.24ZM132.84,0V-13.1h-2.352v7.176c0,2.3-1.368,4.08-3.912,4.032-2.76-.048-3.36-1.7-3.36-4.1v-7.1h-2.352V-6c0,3.72,1.7,6.192,5.64,6.192a4.589,4.589,0,0,0,4.1-1.9V0Zm3.96-13.2V0h2.352V-7.056c0-2.544,1.56-3.96,3.624-3.96,2.16,0,2.856,1.9,2.856,3.72V0h2.352V-7.32c0-2.112,1.152-3.7,3.456-3.7,2.256,0,2.712,1.824,2.712,3.648V0H156.5V-7.392c0-3.288-1.56-5.808-5.136-5.808a4.526,4.526,0,0,0-4.152,2.256c-.96-1.824-2.592-2.256-4.416-2.256a4.125,4.125,0,0,0-3.648,1.824V-13.2Z" transform="translate(949.054 119)" fill="#209d4e"/>
      </g>
      <g id="Grupo_2475" data-name="Grupo 2475" transform="translate(170.576 25.027)">
        <rect id="Retângulo_1629" data-name="Retângulo 1629" width="57.441" height="57.441" rx="8" transform="translate(871 178)" fill="#fff"/>
        <path id="Lorem_ipsum-2" data-name="Lorem ipsum" d="M4.488-16.8H2.064V0h10.32V-2.424h-7.9ZM27.168-6.48c0-4.464-3.456-6.72-6.96-6.72-3.528,0-7.032,2.232-7.032,6.72,0,4.464,3.48,6.72,6.96,6.72C23.664.24,27.168-1.992,27.168-6.48Zm-11.64,0a4.463,4.463,0,0,1,4.68-4.632A4.466,4.466,0,0,1,24.84-6.48a4.462,4.462,0,0,1-4.7,4.608A4.455,4.455,0,0,1,15.528-6.48Zm14.856-6.48V0h2.328V-7.032a4.026,4.026,0,0,1,5.208-3.96v-2.064a4.648,4.648,0,0,0-5.208,1.68V-12.96Zm22.44,5.9a6.371,6.371,0,0,0-6.648-6.12,6.426,6.426,0,0,0-6.744,6.7,6.459,6.459,0,0,0,6.7,6.72A6.484,6.484,0,0,0,52.44-4.008H50.016a4.187,4.187,0,0,1-3.864,2.16,4.331,4.331,0,0,1-4.368-4.08H52.776A3.5,3.5,0,0,0,52.824-7.056ZM41.88-7.872a4.086,4.086,0,0,1,4.3-3.24,3.942,3.942,0,0,1,4.176,3.24ZM56.232-13.2V0h2.352V-7.056c0-2.544,1.56-3.96,3.624-3.96,2.16,0,2.856,1.9,2.856,3.72V0h2.352V-7.32c0-2.112,1.152-3.7,3.456-3.7,2.256,0,2.712,1.824,2.712,3.648V0h2.352V-7.392c0-3.288-1.56-5.808-5.136-5.808a4.526,4.526,0,0,0-4.152,2.256c-.96-1.824-2.592-2.256-4.416-2.256a4.125,4.125,0,0,0-3.648,1.824V-13.2ZM88.032,0H85.68V-13.128h2.352Zm-2.64-16.32a1.467,1.467,0,0,0,2.928,0C88.32-18.144,85.392-18.1,85.392-16.32ZM94.32-1.7A5.068,5.068,0,0,0,98.688.216a6.361,6.361,0,0,0,6.7-6.672c0-3.576-2.184-6.768-6.72-6.744a5.147,5.147,0,0,0-4.344,1.944v-1.728H91.968V3.792H94.32Zm0-4.8a4.324,4.324,0,0,1,4.248-4.632c2.976-.072,4.488,2.3,4.464,4.68a4.332,4.332,0,0,1-4.3,4.584A4.311,4.311,0,0,1,94.32-6.5ZM110.16-9.24c0-1.344,1.344-1.9,2.784-1.9,1.416,0,2.64.552,2.76,1.7h2.328c-.168-2.712-2.448-3.816-5.016-3.816-2.52,0-5.184,1.056-5.184,4.056,0,2.9,2.76,3.624,5.088,3.72,1.128.048,3.168.288,3.144,1.752,0,1.488-1.776,1.872-2.952,1.9-1.632.024-3.024-.7-3.12-2.16H107.64c.168,3.072,2.664,4.2,5.352,4.2,2.448,0,5.424-.888,5.424-3.912,0-2.952-2.784-3.72-5.232-3.888C112.032-7.656,110.16-7.608,110.16-9.24ZM132.84,0V-13.1h-2.352v7.176c0,2.3-1.368,4.08-3.912,4.032-2.76-.048-3.36-1.7-3.36-4.1v-7.1h-2.352V-6c0,3.72,1.7,6.192,5.64,6.192a4.589,4.589,0,0,0,4.1-1.9V0Zm3.96-13.2V0h2.352V-7.056c0-2.544,1.56-3.96,3.624-3.96,2.16,0,2.856,1.9,2.856,3.72V0h2.352V-7.32c0-2.112,1.152-3.7,3.456-3.7,2.256,0,2.712,1.824,2.712,3.648V0H156.5V-7.392c0-3.288-1.56-5.808-5.136-5.808a4.526,4.526,0,0,0-4.152,2.256c-.96-1.824-2.592-2.256-4.416-2.256a4.125,4.125,0,0,0-3.648,1.824V-13.2Z" transform="translate(957.054 213)" fill="#fff"/>
      </g>
      <g id="line-pink">
        <path id="Caminho_22074" data-name="Caminho 22074" d="M206.09,17.242h19.738L256.986,31.9l16.965,24.424,8.482,4.885v61.506l11.876-.445,8.483-19.54v19.984h20.756l-.4,23.98L346.9,178.443l13.572-4.885,5.089,24.424,6.787,17.1h25.925V242.71l28.364-.761,11.876,17.1h25.865l8.065,14.655,8.483,9.769h12.192l6.469,12.213,8.482-9.77,42.413,43.964,15.269,14.655h20.3l6.848-12.213,6.564,12.213L625.13,371.4l25.448,7.328h33.189l19.4,19.54,20.359,9.955H753.7l20.72,12.027,16.966,7.327h50.453l14.014,29.309h61.67l6.191,17.1,16.965,14.655H982.67l24.174,14.655h53.426L1078.1,517.95h82.766v64.063h54.608" transform="translate(-12.721 -1.064)" fill="none" stroke="#209d4e" stroke-width="3"/>
        <path id="Caminho_22080" data-name="Caminho 22080" d="M206.09,17.242h19.738L256.986,31.9l16.965,24.424,8.482,4.885v61.506l11.876-.445,8.483-19.54v19.984h20.756l-.4,23.98L346.9,178.443l13.572-4.885,5.089,24.424,6.787,17.1h25.925V242.71l28.364-.761,11.876,17.1h25.865l8.065,14.655,8.483,9.769h12.192l6.469,12.213,8.482-9.77,42.413,43.964,15.269,14.655h20.3l6.848-12.213,6.564,12.213L625.13,371.4l25.448,7.328h33.189l19.4,19.54,20.359,9.955H753.7l20.72,12.027,16.966,7.327h50.453l14.014,29.309h61.67l6.191,17.1,16.965,14.655H982.67l24.174,14.655h53.426L1078.1,517.95h82.766v64.063h54.608" transform="translate(-12.721 -1.064)" fill="none" stroke="#209d4e" stroke-width="3"/>
      </g>
      <g id="Grupo_2411" data-name="Grupo 2411">
        <g id="Grupo_2410" data-name="Grupo 2410" clip-path="url(#clip-path)">
          <line id="Linha_87" data-name="Linha 87" y1="5.63" transform="translate(799.076 676.516)" fill="none" stroke="#fff" stroke-width="3"/>
          <line id="Linha_88" data-name="Linha 88" y1="224.94" transform="translate(799.076 435.041)" fill="none" stroke="#fff" stroke-width="3" stroke-dasharray="12.294 12.294"/>
          <line id="Linha_89" data-name="Linha 89" y1="5.63" transform="translate(799.076 428.644)" fill="none" stroke="#fff" stroke-width="3"/>
          <line id="Linha_90" data-name="Linha 90" y1="5.63" transform="translate(451.914 676.516)" fill="none" stroke="#fff" stroke-width="3"/>
          <line id="Linha_91" data-name="Linha 91" y1="381.029" transform="translate(451.914 284.113)" fill="none" stroke="#fff" stroke-width="3" stroke-dasharray="12.122 12.122"/>
          <line id="Linha_92" data-name="Linha 92" y1="5.63" transform="translate(451.914 272.796)" fill="none" stroke="#fff" stroke-width="3"/>
          <path id="Caminho_22077" data-name="Caminho 22077" d="M207.418,25.263l18.219,18.819,15.616,17.739,13.881,12.671,15.616,58.285v22.288l10.41,20.793,22.556,10.136v29.164l20.821,18.985h17.9l6.387,27.875h16.654l18.048,25.341,22.56,17.741L421.7,315.234l10.41,25.341,21.1,29.484,20.547.925h16.808l21.364,25.341L543.158,424.2H597.54l27.168,32.944h58.414l9.254,22.808,6.94,32.944h41.408l24.526,12.671h18.265l32.052,12.67h42.009l19.75,15.645h55.957l21.4,27.087h36.208l36.361,18.087h45.929l23.041,33.252,21.255-10.444,41.285,10.444" transform="translate(-12.803 -1.559)" fill="none" stroke="#fff" stroke-width="3"/>
          <path id="Caminho_22078" data-name="Caminho 22078" d="M513.2,390.089A33.789,33.789,0,1,1,479.41,356.3a33.789,33.789,0,0,1,33.79,33.789" transform="translate(-27.505 -21.992)" fill="#fff"/>
          <path id="Caminho_22079" data-name="Caminho 22079" d="M883.821,556.63a33.789,33.789,0,1,1-33.789-33.789,33.789,33.789,0,0,1,33.789,33.789" transform="translate(-50.382 -32.272)" fill="#fff"/>
        </g>
      </g>
      <path id="_27_" data-name="27%" d="M3.234-10.538A3.063,3.063,0,0,1,6.38-13.486c3.586,0,4.18,3.652,1.76,5.39h.022L.924-1.716V0h10.8V-2.134H4.664L9.636-6.4c4.158-2.9,2.574-9.306-3.256-9.306-3.212,0-4.972,2.244-5.368,4.994Zm11.308-5.016v2.178h7.92L15.246,0H17.8l7.59-14.036v-1.518Zm19.712,3.762a3.76,3.76,0,0,0-3.784-3.74,3.756,3.756,0,0,0-3.762,3.74A3.751,3.751,0,0,0,30.47-8.074,3.756,3.756,0,0,0,34.254-11.792Zm4.356-3.432L28.6.2h2.508L41.14-15.224Zm-6.4,3.432A1.762,1.762,0,0,1,30.47-9.966a1.758,1.758,0,0,1-1.716-1.826A1.778,1.778,0,0,1,30.47-13.64,1.782,1.782,0,0,1,32.208-11.792ZM43.274-3.608a3.76,3.76,0,0,0-3.784-3.74,3.742,3.742,0,0,0-3.762,3.74A3.737,3.737,0,0,0,39.49.11,3.756,3.756,0,0,0,43.274-3.608Zm-2.046,0A1.762,1.762,0,0,1,39.49-1.782a1.776,1.776,0,0,1-1.738-1.826A1.8,1.8,0,0,1,39.49-5.456,1.782,1.782,0,0,1,41.228-3.608Z" transform="translate(779.03 532)"/>
      <path id="_48_" data-name="48%" d="M.726-5.038v1.562H8.4V0h2.2V-3.476h1.254V-5.632H10.6v-9.922H8.888Zm2.9-.55L8.448-11.7v6.116Zm16.588,3.74C18-1.848,16.874-3.212,16.874-4.4c0-1.21,1.122-2.508,3.344-2.508,2.266,0,3.366,1.3,3.366,2.508C23.584-3.212,22.484-1.848,20.218-1.848Zm0-11.836a2.537,2.537,0,0,1,2.728,2.31,2.533,2.533,0,0,1-2.728,2.42,2.523,2.523,0,0,1-2.706-2.4A2.534,2.534,0,0,1,20.218-13.684Zm4.928,2.376c0-2.178-1.65-4.334-4.928-4.334-2.354,0-4.884,1.386-4.906,4.312a3.456,3.456,0,0,0,2.024,3.278,4.131,4.131,0,0,0-2.662,3.63c0,2.442,1.87,4.642,5.544,4.642,3.718,0,5.588-2.332,5.588-4.642a3.9,3.9,0,0,0-2.6-3.63A3.771,3.771,0,0,0,25.146-11.308Zm9.79-.484a3.76,3.76,0,0,0-3.784-3.74,3.756,3.756,0,0,0-3.762,3.74,3.751,3.751,0,0,0,3.762,3.718A3.756,3.756,0,0,0,34.936-11.792Zm4.356-3.432L29.282.2H31.79L41.822-15.224Zm-6.4,3.432a1.762,1.762,0,0,1-1.738,1.826,1.758,1.758,0,0,1-1.716-1.826,1.778,1.778,0,0,1,1.716-1.848A1.782,1.782,0,0,1,32.89-11.792ZM43.956-3.608a3.76,3.76,0,0,0-3.784-3.74,3.742,3.742,0,0,0-3.762,3.74A3.737,3.737,0,0,0,40.172.11,3.756,3.756,0,0,0,43.956-3.608Zm-2.046,0a1.762,1.762,0,0,1-1.738,1.826,1.776,1.776,0,0,1-1.738-1.826,1.8,1.8,0,0,1,1.738-1.848A1.782,1.782,0,0,1,41.91-3.608Z" transform="translate(430.03 376)"/>
      <g id="Grupo_2417" data-name="Grupo 2417" transform="translate(767.461 399.139)">
        <path id="Caminho_22066" data-name="Caminho 22066" d="M626.752,528.753a38.011,38.011,0,1,1-38.011-38.01,38.011,38.011,0,0,1,38.011,38.01" transform="translate(-557.682 -497.903)" fill="#002939" stroke="#209d4e" stroke-width="4"/>
        <path id="_38_" data-name="38%" d="M4.9-8.075H7.525A2.986,2.986,0,0,1,10.7-5.1C10.7-3.65,9.525-2,6.75-2,4.55-2,3.4-3.25,3.175-4.65l-2.35.425C1.225-1.825,3,.35,6.75.35c4.2,0,6.3-2.675,6.325-5.2a5.01,5.01,0,0,0-2.25-4.475,3.635,3.635,0,0,0,1.6-3.375c-.025-3.55-3-4.95-5.825-4.95A5.2,5.2,0,0,0,1.325-13.7l2.275.55a2.976,2.976,0,0,1,3-2.1c1.65,0,3.325.65,3.325,2.55a2.192,2.192,0,0,1-2.4,2.325H4.9ZM22.125-2.1c-2.525,0-3.8-1.55-3.8-2.9,0-1.375,1.275-2.85,3.8-2.85C24.7-7.85,25.95-6.375,25.95-5,25.95-3.65,24.7-2.1,22.125-2.1Zm0-13.45a2.883,2.883,0,0,1,3.1,2.625,2.879,2.879,0,0,1-3.1,2.75A2.867,2.867,0,0,1,19.05-12.9,2.88,2.88,0,0,1,22.125-15.55Zm5.6,2.7c0-2.475-1.875-4.925-5.6-4.925-2.675,0-5.55,1.575-5.575,4.9a3.927,3.927,0,0,0,2.3,3.725,4.694,4.694,0,0,0-3.025,4.125c0,2.775,2.125,5.275,6.3,5.275,4.225,0,6.35-2.65,6.35-5.275a4.434,4.434,0,0,0-2.95-4.125A4.285,4.285,0,0,0,27.725-12.85ZM38.85-13.4a4.273,4.273,0,0,0-4.3-4.25,4.268,4.268,0,0,0-4.275,4.25A4.263,4.263,0,0,0,34.55-9.175,4.268,4.268,0,0,0,38.85-13.4Zm4.95-3.9L32.425.225h2.85L46.675-17.3Zm-7.275,3.9a2,2,0,0,1-1.975,2.075A2,2,0,0,1,32.6-13.4a2.02,2.02,0,0,1,1.95-2.1A2.024,2.024,0,0,1,36.525-13.4ZM49.1-4.1a4.273,4.273,0,0,0-4.3-4.25A4.252,4.252,0,0,0,40.525-4.1,4.247,4.247,0,0,0,44.8.125,4.268,4.268,0,0,0,49.1-4.1Zm-2.325,0A2,2,0,0,1,44.8-2.025,2.018,2.018,0,0,1,42.825-4.1,2.041,2.041,0,0,1,44.8-6.2,2.024,2.024,0,0,1,46.775-4.1Z" transform="translate(7.571 39.861)" fill="#fff"/>
      </g>
      <path id="_100" data-name="100" d="M7.056,0V-16.8H5.112L.576-10.416l1.56,1.248,2.52-3.312V0Zm10.1-14.568c2.712,0,3.936,2.856,3.936,6.192,0,3.168-1.224,6.168-3.936,6.168s-3.888-3-3.888-6.168C13.272-11.712,14.448-14.568,17.16-14.568Zm0,14.736c4.272,0,6.432-4.272,6.432-8.544,0-4.3-2.16-8.592-6.432-8.592-4.3,0-6.408,4.3-6.408,8.592C10.752-4.1,12.864.168,17.16.168ZM32.928-14.568c2.712,0,3.936,2.856,3.936,6.192,0,3.168-1.224,6.168-3.936,6.168s-3.888-3-3.888-6.168C29.04-11.712,30.216-14.568,32.928-14.568Zm0,14.736C37.2.168,39.36-4.1,39.36-8.376c0-4.3-2.16-8.592-6.432-8.592-4.3,0-6.408,4.3-6.408,8.592C26.52-4.1,28.632.168,32.928.168Z" transform="translate(90 27.771)" fill="#fff"/>
      <path id="_80" data-name="80" d="M6.912-2.016C4.488-2.016,3.264-3.5,3.264-4.8c0-1.32,1.224-2.736,3.648-2.736,2.472,0,3.672,1.416,3.672,2.736C10.584-3.5,9.384-2.016,6.912-2.016Zm0-12.912a2.768,2.768,0,0,1,2.976,2.52,2.763,2.763,0,0,1-2.976,2.64A2.753,2.753,0,0,1,3.96-12.384,2.764,2.764,0,0,1,6.912-14.928Zm5.376,2.592c0-2.376-1.8-4.728-5.376-4.728-2.568,0-5.328,1.512-5.352,4.7A3.77,3.77,0,0,0,3.768-8.784a4.507,4.507,0,0,0-2.9,3.96C.864-2.16,2.9.24,6.912.24c4.056,0,6.1-2.544,6.1-5.064a4.257,4.257,0,0,0-2.832-3.96A4.114,4.114,0,0,0,12.288-12.336Zm9.864-2.232c2.712,0,3.936,2.856,3.936,6.192,0,3.168-1.224,6.168-3.936,6.168s-3.888-3-3.888-6.168C18.264-11.712,19.44-14.568,22.152-14.568Zm0,14.736c4.272,0,6.432-4.272,6.432-8.544,0-4.3-2.16-8.592-6.432-8.592-4.3,0-6.408,4.3-6.408,8.592C15.744-4.1,17.856.168,22.152.168Z" transform="translate(104 161.416)" fill="#fff"/>
      <path id="_60" data-name="60" d="M6.984-9.12a3.372,3.372,0,0,1,3.7,3.36c0,1.68-1.2,3.312-3.7,3.312a3.351,3.351,0,0,1-3.7-3.312A3.385,3.385,0,0,1,6.984-9.12ZM1.9-9.12A6.22,6.22,0,0,0,.864-5.76,5.717,5.717,0,0,0,6.984,0,5.7,5.7,0,0,0,13.1-5.76a5.666,5.666,0,0,0-2.784-4.968,5.355,5.355,0,0,0-4.08-.288l4.248-6H7.512Zm20.232-5.448c2.712,0,3.936,2.856,3.936,6.192,0,3.168-1.224,6.168-3.936,6.168s-3.888-3-3.888-6.168C18.24-11.712,19.416-14.568,22.128-14.568Zm0,14.736C26.4.168,28.56-4.1,28.56-8.376c0-4.3-2.16-8.592-6.432-8.592-4.3,0-6.408,4.3-6.408,8.592C15.72-4.1,17.832.168,22.128.168Z" transform="translate(104 296.953)" fill="#fff"/>
      <path id="_40" data-name="40" d="M.792-5.5v1.7H9.168V0h2.4V-3.792h1.368V-6.144H11.568V-16.968H9.7ZM3.96-6.1l5.256-6.672V-6.1Zm18.312-8.472c2.712,0,3.936,2.856,3.936,6.192,0,3.168-1.224,6.168-3.936,6.168s-3.888-3-3.888-6.168C18.384-11.712,19.56-14.568,22.272-14.568Zm0,14.736C26.544.168,28.7-4.1,28.7-8.376c0-4.3-2.16-8.592-6.432-8.592-4.3,0-6.408,4.3-6.408,8.592C15.864-4.1,17.976.168,22.272.168Z" transform="translate(104 432.488)" fill="#fff"/>
      <path id="_20" data-name="20" d="M3.528-11.5c.288-1.872,1.368-3.216,3.432-3.216,3.912,0,4.56,3.984,1.92,5.88H8.9l-7.9,6.96V0H12.792V-2.328h-7.7l5.424-4.656c4.536-3.168,2.808-10.152-3.552-10.152-3.5,0-5.424,2.448-5.856,5.448ZM22.44-14.568c2.712,0,3.936,2.856,3.936,6.192,0,3.168-1.224,6.168-3.936,6.168s-3.888-3-3.888-6.168C18.552-11.712,19.728-14.568,22.44-14.568Zm0,14.736c4.272,0,6.432-4.272,6.432-8.544,0-4.3-2.16-8.592-6.432-8.592-4.3,0-6.408,4.3-6.408,8.592C16.032-4.1,18.144.168,22.44.168Z" transform="translate(104 568.023)" fill="#fff"/>
    </g>
    <g id="Grupo_2472" data-name="Grupo 2472" transform="translate(13234 19650.295)">
      <g id="Grupo_2416" data-name="Grupo 2416" transform="translate(-12499.854 -18912.334)">
        <path id="Caminho_22066-2" data-name="Caminho 22066" d="M690.571,560.663a69.921,69.921,0,1,1-69.921-69.92,69.921,69.921,0,0,1,69.921,69.92" transform="translate(-558.19 -507.203)" fill="#002939" stroke="#209d4e" stroke-width="8"/>
        <path id="_60_" data-name="60%" d="M14.259-18.62c5.1,0,7.546,3.43,7.546,6.86S19.355-5,14.259-5C9.212-5,6.713-8.33,6.713-11.76S9.212-18.62,14.259-18.62Zm-10.388,0a12.7,12.7,0,0,0-2.107,6.86C1.764-5.88,5.978,0,14.259,0c8.33,0,12.495-5.88,12.495-11.76A11.567,11.567,0,0,0,21.07-21.9a10.933,10.933,0,0,0-8.33-.588l8.673-12.25H15.337ZM45.178-29.743c5.537,0,8.036,5.831,8.036,12.642,0,6.468-2.5,12.593-8.036,12.593S37.24-10.633,37.24-17.1C37.24-23.912,39.641-29.743,45.178-29.743Zm0,30.086C53.9.343,58.31-8.379,58.31-17.1c0-8.771-4.41-17.542-13.132-17.542-8.771,0-13.083,8.771-13.083,17.542C32.095-8.379,36.407.343,45.178.343ZM78.3-26.264a8.375,8.375,0,0,0-8.428-8.33,8.365,8.365,0,0,0-8.379,8.33,8.355,8.355,0,0,0,8.379,8.281A8.366,8.366,0,0,0,78.3-26.264ZM88-33.908,65.709.441h5.586L93.639-33.908ZM73.745-26.264A3.925,3.925,0,0,1,69.874-22.2a3.916,3.916,0,0,1-3.822-4.067,3.96,3.96,0,0,1,3.822-4.116A3.968,3.968,0,0,1,73.745-26.264ZM98.392-8.036a8.375,8.375,0,0,0-8.428-8.33,8.334,8.334,0,0,0-8.379,8.33A8.323,8.323,0,0,0,89.964.245,8.366,8.366,0,0,0,98.392-8.036Zm-4.557,0a3.925,3.925,0,0,1-3.871,4.067,3.956,3.956,0,0,1-3.871-4.067,4,4,0,0,1,3.871-4.116A3.968,3.968,0,0,1,93.835-8.036Z" transform="translate(13.571 69.959)" fill="#fff"/>
      </g>
    </g>
  </g>
</svg>
